<svg xmlns="http://www.w3.org/2000/svg" viewBox="0 0 80 80"><defs><linearGradient id="a" y1="100%"><stop offset="0" stop-color="#B0084D"/><stop offset="1" stop-color="#FF4F8B"/></linearGradient></defs><g fill-rule="evenodd"><path fill="url(#a)" d="M0 0h80v80H0z"/><path fill="#fff" d="m58.541 47.051 1.88.65-1.186 3.429a.994.994 0 0 1-1.063.661l-3.831-.477.246-1.974 2.166.27c-.852-1.341-2.458-2.179-4.378-2.179-2.514 0-4.42 1.376-4.854 3.504l-1.949-.398c.633-3.095 3.303-5.095 6.803-5.095 2.454 0 4.532 1.04 5.782 2.72zm-1.31 6.739 1.948.4c-.63 3.073-3.364 5.138-6.804 5.138-2.239 0-4.212-.965-5.487-2.513l-.198.934-1.946-.413.788-3.721a.99.99 0 0 1 1.165-.77l3.618.708-.382 1.952-1.824-.357c.874 1.339 2.452 2.19 4.266 2.19 2.507 0 4.412-1.393 4.855-3.548m7.78.31-1.196-.068a1 1 0 0 0-1.027.775 10.5 10.5 0 0 1-1.367 3.3c-.26.41-.184.95.179 1.272l.894.797-2.317 2.318-.794-.89a.994.994 0 0 0-1.274-.179 10.5 10.5 0 0 1-3.304 1.37.99.99 0 0 0-.773 1.026l.068 1.19h-3.278l.068-1.19a.995.995 0 0 0-.773-1.028 10.5 10.5 0 0 1-3.302-1.37.99.99 0 0 0-1.274.18l-.795.89-2.318-2.317.891-.795a.99.99 0 0 0 .18-1.272 10.5 10.5 0 0 1-1.366-3.303 1 1 0 0 0-1.027-.774l-1.194.068v-3.277l1.198.067c.441.02.918-.298 1.027-.772.264-1.17.725-2.28 1.368-3.297a.995.995 0 0 0-.179-1.273l-.898-.801 2.318-2.319.801.897a.994.994 0 0 0 1.273.18 10.5 10.5 0 0 1 3.297-1.364.995.995 0 0 0 .774-1.028l-.07-1.201h3.28l-.068 1.203c-.03.486.299.92.772 1.027 1.17.264 2.278.724 3.295 1.365a1 1 0 0 0 1.273-.179l.803-.9 2.318 2.319-.896.798a.995.995 0 0 0-.178 1.273 10.5 10.5 0 0 1 1.367 3.3c.108.474.568.792 1.027.772l1.197-.067zm1.677-5.054a1 1 0 0 0-.74-.27l-1.435.082a12.5 12.5 0 0 0-.983-2.37l1.074-.959a.997.997 0 0 0 .041-1.445l-3.806-3.807a.95.95 0 0 0-.732-.29 1 1 0 0 0-.715.33l-.961 1.08a12.4 12.4 0 0 0-2.367-.981l.082-1.443a.993.993 0 0 0-.993-1.05H49.77a.993.993 0 0 0-.992 1.05l.081 1.44q-1.234.37-2.368.982l-.96-1.077a1 1 0 0 0-.715-.332.97.97 0 0 0-.73.29l-3.808 3.808a.99.99 0 0 0 .04 1.445l1.078.962a12.5 12.5 0 0 0-.984 2.367l-1.438-.082a.995.995 0 0 0-1.05.994v5.383a.996.996 0 0 0 1.05.993l1.433-.082q.37 1.238.983 2.374l-1.071.954a1 1 0 0 0-.041 1.446l3.807 3.807a.995.995 0 0 0 1.445-.04l.955-1.071q1.137.615 2.374.985l-.081 1.43A.993.993 0 0 0 49.769 67h5.384a.994.994 0 0 0 .993-1.051l-.082-1.428c.825-.246 1.62-.575 2.376-.985l.953 1.068c.182.205.44.324.714.332a.96.96 0 0 0 .732-.291l3.806-3.807a.995.995 0 0 0-.04-1.445l-1.073-.957c.409-.755.738-1.55.983-2.372l1.434.082A.993.993 0 0 0 67 55.153V49.77a1 1 0 0 0-.312-.723zM14.99 54.774h19.892v1.99H13.995a.994.994 0 0 1-.995-.995V13.995c0-.55.445-.995.995-.995h45.753c.55 0 .995.446.995.995v21.882h-1.99V14.99H14.99zm32.823-27.849h-.995v-1.989h5.968v1.99zm.995-3.978h1.989v-3.979h-1.99zm3.978 12.93v-6.963h.995c.55 0 .994-.445.994-.994v-3.98a.994.994 0 0 0-.994-.994h-.995v-4.974a.994.994 0 0 0-.995-.994h-3.978a.994.994 0 0 0-.995.994v4.974h-.994a.994.994 0 0 0-.995.994v3.979c0 .549.445.994.995.994h.994v6.963h1.99v-6.963h1.989v6.963zm-18.898 1.989h-.995v-1.99h5.968v1.99zm.995-3.979h1.989v-14.92h-1.99zm3.978 7.957v-1.989h.995c.55 0 .994-.445.994-.994v-3.979a.994.994 0 0 0-.994-.995h-.995V17.973a.994.994 0 0 0-.994-.994h-3.979a.994.994 0 0 0-.995.994v15.914H31.9a.994.994 0 0 0-.995.995v3.979c0 .549.445.994.995.994h.994v10.941h1.99v-10.94h1.989v1.988zM18.97 27.92h5.968v1.99H18.97zm1.99-1.989h1.989v-6.962h-1.99zm0 22.876h1.989v-16.91h-1.99zm-.995 1.99h3.978c.55 0 .995-.446.995-.995V31.898h.994c.55 0 .995-.446.995-.995v-3.978a.994.994 0 0 0-.995-.995h-.994v-7.957a.994.994 0 0 0-.995-.995h-3.978a.994.994 0 0 0-.995.995v7.957h-.995a.994.994 0 0 0-.994.995v3.978c0 .55.444.995.994.995h.995V49.8c0 .549.445.994.995.994"/></g></svg>