<svg xmlns="http://www.w3.org/2000/svg" viewBox="0 0 105 105"><path fill="#df3b26" d="M52.599 1.395c-11.798 0-21.793 7.698-25.25 18.343a26.5 26.5 0 0 0-1.299 8.205c0 8.835 4.319 16.656 10.957 21.482a26.44 26.44 0 0 0 15.591 5.066 26.4 26.4 0 0 1 0-16.394c2.539-7.804 8.643-14.329 17.045-17.059a26.5 26.5 0 0 1 8.205-1.301C74.392 9.093 64.397 1.395 52.599 1.395"/><path fill="#207495" d="M37.008 49.425c-6.638-4.826-10.957-12.648-10.957-21.482a26.5 26.5 0 0 1 1.299-8.205c-11.192-.002-21.602 7.125-25.248 18.345s.587 23.105 9.643 29.682a26.5 26.5 0 0 0 7.402 3.77c8.402 2.73 17.176 1.039 23.817-3.782A26.4 26.4 0 0 0 52.6 54.49a26.4 26.4 0 0 1-15.592-5.065"/><path fill="#f2743a" d="M103.1 38.084c-3.646-11.22-14.056-18.347-25.248-18.345-2.717 0-5.48.415-8.205 1.301-8.402 2.73-14.506 9.255-17.045 17.059a26.4 26.4 0 0 0 0 16.394 26.42 26.42 0 0 1 15.591-5.066c8.207.003 16.298 3.792 21.491 10.939a26.5 26.5 0 0 1 3.772 7.401c9.057-6.579 13.29-18.463 9.644-29.683"/><path fill="#fae2b6" d="M93.45 67.766a26.5 26.5 0 0 0-3.772-7.401c-5.193-7.147-13.285-10.937-21.491-10.939a26.42 26.42 0 0 0-15.591 5.066 26.4 26.4 0 0 1 9.636 13.263c2.533 7.806 1.43 16.672-3.763 23.82a26.5 26.5 0 0 1-5.873 5.875c9.054 6.58 21.665 6.933 31.209-.001 9.544-6.936 13.105-19.039 9.645-29.683"/><path fill="#14294f" d="M62.235 67.754a26.43 26.43 0 0 0-9.636-13.263 26.43 26.43 0 0 1-9.636 13.263c-6.641 4.822-15.414 6.512-23.817 3.782a26.5 26.5 0 0 1-7.402-3.77c-3.46 10.644.101 22.747 9.645 29.681 9.545 6.934 22.155 6.581 31.209.001a26.5 26.5 0 0 0 5.873-5.875c5.194-7.147 6.298-16.013 3.764-23.819"/></svg>