<svg xmlns="http://www.w3.org/2000/svg" viewBox="0 0 4800 4800"><path fill="#222017" d="M2226.9 3583.2c80.728 86.599 204.16 137.2 279.93 61.301l234.54-234.62 903.17-903c146.18-146.18-177.35-468.71-323.01-322.84l-333.38 333.28 17.329 17.211 1.957 1.91c39.091 41.425 38.218 107.3-1.957 147.66l-19.428 19.404-94.167 94.308-799.26-799.26h.141l-91.95-92.186 94.308-94.144 19.428-19.427c40.34-40.152 106.19-40.977 147.52-1.863l1.934 1.863 17.376 17.305 501.06-500.96c355.68-354.29 939.48-354.29 1295.2 0l442.57 442.47c353.92 355.9 353.92 939.36 0 1295.2l-1070.8 1070.8-402.67 401.97c-355.87 354.06-939.48 354.06-1295.4 0l-561.72-561.86c357.85 57.669 722.45-60.122 978.92-316.24l58.329-58.353z"/><path fill="#c7272e" d="M2571.3 1215h-.165c-80.657-86.645-204.08-137.31-279.88-61.489l-234.52 234.59-903.19 903c-146.18 146.18 177.32 468.74 323.01 323.01l333.38-333.43-17.282-17.188-1.957-1.957c-39.162-41.377-38.289-107.32 1.957-147.64l19.427-19.381 94.144-94.308 799.26 799.26h-.165l92.069 92.139-94.12 94.308-19.569 19.333c-40.317 40.129-106.12 40.977-147.45 1.91l-1.957-1.91-17.306-17.329-501.06 500.92c-355.68 354.36-939.52 354.36-1295.2 0l-442.21-442.12c-353.92-355.9-353.92-939.36 0-1295.2l1070.7-1070.8 402.13-402.11c355.9-353.99 939.45-353.99 1295.4 0l561.72 561.86c-357.83-57.646-722.38 60.122-978.83 316.24l-58.306 58.376z"/></svg>