<svg xmlns="http://www.w3.org/2000/svg" fill="currentColor" viewBox="0 0 600 124"><path fill-opacity=".6" d="M587.6 47.9c-4.8 0-8.8 3.9-8.8 8.8s3.9 8.8 8.8 8.8c4.8 0 8.8-3.9 8.8-8.8.1-4.9-3.9-8.8-8.8-8.8z"/><path d="m573.5 68.2-14.6 7.9c.1.7.1 1.4.1 2.1 0 7.8-6.3 14.1-14.1 14-7.8 0-14.1-6.3-14-14.1 0-7.8 6.3-14.1 14.1-14 4.1 0 7.8 1.8 10.3 4.6l13.6-7.3L551 34h-.4c-4.2 0-7.6-3.4-7.6-7.6s3.4-7.6 7.6-7.6 7.6 3.4 7.6 7.6c0 1.4-.4 2.7-1.1 3.9l10.6 15.9c5.6-4.8 9.2-11.9 9.2-19.9 0-14.4-11.7-26.2-26.2-26.3-14.4 0-26.2 11.7-26.3 26.2 0 7.6 3.3 14.6 8.5 19.4-13.1 4.9-22.4 17.5-22.4 32.4 0 19.1 15.5 34.7 34.6 34.7 10.6 0 20.1-4.8 26.5-12.2l5.1 7.7H600l-26.5-40zm-203-48.8c-2 0-3.7.7-5.1 2-1.4 1.4-2 3.1-2 5.1s.7 3.7 2 5.1c1.4 1.4 3.1 2 5.1 2s3.7-.7 5.1-2c1.4-1.4 2-3.1 2-5.1s-.7-3.7-2.1-5.1c-1.3-1.2-3-2-5-2zm-215.2 26c-4.2 0-8.3.9-12 2.8-3.3 1.6-5.9 4.1-7.9 7.4-1.8-3-4.2-5.4-7.3-7.1-3.6-2-7.8-3.1-12.5-3.1-3.6 0-7.1.7-10.4 2.2-2.5 1.1-4.7 2.7-6.5 4.8v-5.8H88.6v54.6h10.1V70.5c0-4.6 1.5-8.3 4.4-11.1s6.5-4.2 10.9-4.2c4.5 0 8.2 1.4 10.6 3.9 2.5 2.6 3.7 6.4 3.7 11.1v30.9h10.1V70.4c0-4.6 1.5-8.3 4.4-11.1s6.6-4.2 10.9-4.2c4.5 0 8.2 1.4 10.6 3.9 2.5 2.6 3.8 6.4 3.8 11.1V101h10.1V67.4c0-6.6-2.2-12-6.4-16-4.1-4-9.7-6-16.5-6zm66.1 0c-7.6 0-13.7 2.5-18.3 7.4v-6.3H193v77.1h10.1V94.8c4.6 4.9 10.7 7.4 18.3 7.4 7.7 0 14.2-2.7 19.4-8.1s7.9-12.2 7.9-20.3-2.6-14.9-7.9-20.3c-5.1-5.4-11.7-8.1-19.4-8.1zm17 28.3c0 5.3-1.7 9.8-5 13.4s-7.6 5.4-13 5.4c-5.2 0-9.5-1.8-12.8-5.3-3.4-3.5-5.1-8.1-5.1-13.5s1.7-9.9 5.1-13.4 7.6-5.3 12.8-5.3 9.6 1.8 12.9 5.4c3.3 3.5 5.1 8 5.1 13.3zm46.2-28.3c-7.8 0-14.4 2.7-19.4 8s-7.6 12.1-7.6 20.4 2.6 15.2 7.7 20.4 11.8 7.9 19.9 7.9c8.9 0 16.4-2.9 22.3-8.5l.6-.6-5.6-7.1-.7.7c-4.6 4.2-10.1 6.4-16.1 6.4-4.8 0-8.8-1.4-12.1-4.2-3.1-2.6-4.9-6.4-5.6-11.2h42.1l.1-.8c.1-1 .2-2 .2-3.3 0-8.2-2.5-15-7.3-20.3-4.9-5.2-11-7.8-18.5-7.8zM268.1 69c.8-4.2 2.5-7.6 5.2-10.2 2.9-2.8 6.7-4.2 11.2-4.2 4.2 0 7.8 1.4 10.6 4.2 2.6 2.6 4.2 6 4.9 10.3h-31.9V69zm77.7-23.6c-3.4 0-6.5.8-9.3 2.3-2 1.1-3.9 2.6-5.4 4.4v-5.6H321v54.6h10.1V70.7c0-4.7 1.2-8.5 3.7-11.3 2.4-2.8 5.6-4.2 9.5-4.2 3.3 0 6.3.7 8.7 2l1 .6 2.4-10.1-.7-.3c-2.5-1.4-5.9-2-9.9-2zm19.6 1.1h10.1v54.6h-10.1V46.5zM426.7 89c-3.3 2.3-6.8 3.6-10.6 3.6-2.9 0-5.3-.9-7-2.7s-2.6-4.6-2.6-8.3V55.9h20.8l-5.6-9.3h-15.2V29.8h-10.1v16.8h-11.5v9.3h11.5v25.8c0 6.7 1.7 11.9 5 15.3s8 5.2 14.1 5.2 11.4-1.8 16.2-5.4l.7-.5-4.8-7.8-.9.5zm55-42.5-17.4 30.4-20.1-30.4h-11.6L459 86.3l-21.2 37.2H449l43.5-76.3.5-.8h-11.3v.1zM45.1 21.2H32.8L0 101.1h11.3l8.8-21.8h37.4l8.8 21.8h11.5L45.1 21.6v-.4zM53.3 69H24.2l14.6-35.7L53.3 69z"/></svg>