<svg xmlns="http://www.w3.org/2000/svg" fill="currentColor" viewBox="0 0 125 24"><path d="M46.203.9h5.002l9.247 22.668h-4.785L53.4 17.955h-9.643l-2.195 5.613h-4.534L46.203.9Zm2.267 5.109-3.346 8.492h6.908l-3.418-8.492h-.144Zm16.915 9.067v8.492h-4.318V7.7h4.318v2.59c.791-1.798 2.806-3.022 5.181-3.022 4.246 0 5.793 2.879 5.793 6.405v9.895h-4.317v-9.031c0-2.447-.972-3.85-3.095-3.85-2.195 0-3.562 1.727-3.562 4.39Zm20.455-4.174h-8.06V7.7h13.385v2.95l-8.42 9.716h8.636v3.202H77.564v-2.95l8.276-9.715Zm18.161 7.125 3.49.36c-.828 3.526-3.562 5.613-7.628 5.613-4.894 0-8.42-3.13-8.42-8.132 0-5.001 3.562-8.6 8.312-8.6 5.181 0 7.844 3.599 7.844 7.916v1.548h-11.91c.144 2.338 1.979 3.994 4.318 3.994 2.123 0 3.382-.9 3.994-2.699Zm-8.24-3.994h7.628c-.144-1.835-1.259-3.598-3.67-3.598-2.375 0-3.563 1.619-3.958 3.598Zm17.487 1.043v8.492h-4.318V7.7h4.318v2.59c.792-1.798 2.807-3.022 5.181-3.022 4.246 0 5.793 2.879 5.793 6.405v9.895h-4.317v-9.031c0-2.447-.972-3.85-3.095-3.85-2.195 0-3.562 1.727-3.562 4.39ZM3.934 19.268 0 16.998 9.813 0l3.934 2.271-9.813 16.997Zm19.627 0v4.543H3.934v-4.543h19.627Zm0 0 3.934-2.27L17.68 0l-3.934 2.271 9.814 16.997Z"/></svg>