<svg xmlns="http://www.w3.org/2000/svg" viewBox="0 0 210 34"><path fill="#577138" d="M195.95 16.175h4.805q1.849 0 2.708.942.858.924.858 2.69 0 1.635-1.007 2.477-1.007.825-2.923.826h-4.442v-6.935zm0-9.692h3.302q2.082 0 3.122.792 1.056.792 1.057 2.46 0 1.52-1.042 2.311-1.039.793-2.972.793h-3.468zm-22.287 0h3.187q2.593 0 4.063 1.75t1.468 4.54v4.013q0 2.824-1.469 4.574t-4.062 1.75h-3.187V6.485zm14.912-3.715v2.906l2.559.495v17.25l-2.559.496v2.89h11.823q4.177 0 6.456-1.767 2.277-1.783 2.277-5.235 0-1.998-1.09-3.517-1.072-1.52-3.235-1.981 1.684-.66 2.558-1.965.892-1.322.892-2.99 0-3.284-2.377-4.937-2.378-1.65-6.621-1.651h-10.683zm-22.287 0v2.906l2.558.495v17.25l-2.559.496v2.89h10.815q4.41 0 7.265-2.792 2.858-2.806 2.857-7.231v-3.98q0-4.409-2.856-7.216-2.858-2.824-7.265-2.824h-10.815z"/><path fill="#a3b34f" d="M95.325 18.925h2.46v2.95q-.495.71-1.388 1.189a4.24 4.24 0 0 1-1.98.462q-1.041 0-1.636-.512-.578-.512-.578-1.42c0-.672.264-1.469.792-1.943q.793-.726 2.329-.726m40.312-6.626q1.074 0 1.833.445.776.446 1.238 1.255v7.76q-.461.777-1.238 1.189-.76.396-1.866.396-1.784 0-2.577-1.336-.792-1.355-.792-3.699v-.347q0-2.526.81-4.095.825-1.568 2.592-1.568m19.762-.034q1.882 0 2.758 1.503.875 1.503.875 3.88v.347q0 2.427-.875 3.914-.86 1.486-2.725 1.486-1.916 0-2.774-1.47-.86-1.486-.859-3.93v-.346q0-2.379.859-3.881.858-1.503 2.741-1.503m0-3.715q-3.946 0-6.192 2.56-2.23 2.543-2.23 6.539v.346q0 4.03 2.23 6.572 2.245 2.527 6.225 2.527 3.93 0 6.158-2.527 2.246-2.543 2.245-6.572v-.346q0-4.013-2.245-6.555-2.229-2.543-6.192-2.544m-37.75 0q-1.619 0-2.923.76t-2.195 2.13l-.214-2.56h-7.05v2.906l2.558.496v11.079l-2.311.496v2.89h9.081v-2.89l-1.947-.496v-9.578a3.45 3.45 0 0 1 1.271-1.089q.76-.396 1.717-.396 1.47 0 2.195.759.727.743.727 2.544v7.76l-2.064.496v2.89h9.214v-2.89l-2.311-.496v-7.777q0-3.632-1.519-5.333t-4.228-1.702m-22.487 0c-1.168 0-2.256.164-3.274.471a10 10 0 0 0-1.482.51c-1.895.84-2.562 1.545-2.562 1.545l2.284 3.02s.728-.786 2.794-1.667c.605-.256 1.352-.359 1.924-.361q1.453 0 2.196.71t.743 1.997V16.3h-2.46c-2.597 0-4.567.682-5.911 1.596q-2.014 1.372-2.015 3.88 0 2.46 1.536 3.897 1.553 1.42 4.178 1.42 1.585 0 2.806-.611a6.6 6.6 0 0 0 2.096-1.603 7.6 7.6 0 0 0 .579 1.866h5.564v-2.89l-1.47-.198a7 7 0 0 1-.065-.694v-8.157q0-3.006-2.081-4.624-2.065-1.635-5.383-1.635m-10.585 0q-1.305 0-2.295.777-.99.776-1.619 2.162l-.215-2.609h-7.05v2.907l2.56.496v11.078l-2.312.496v2.89h9.445v-2.89l-2.311-.496v-8.685a2.67 2.67 0 0 1 1.056-1.173q.694-.412 1.752-.412l1.98.05.512-4.393a4.4 4.4 0 0 0-.71-.132 5 5 0 0 0-.792-.066m54.825-.06-.402 2.636q-.809-1.238-1.948-1.898-1.14-.678-2.642-.677-3.318 0-5.167 2.592-1.834 2.592-1.834 6.82v.347q0 3.946 1.834 6.374 1.85 2.41 5.135 2.411 1.388 0 2.46-.528a5.4 5.4 0 0 0 1.865-1.537v1.172q0 1.916-.874 2.99-.875 1.073-2.643 1.073-1.289 0-2.444-.298a14.6 14.6 0 0 1-2.31-.776l-.893 3.385q1.288.645 2.808 1.007 1.518.38 2.872.38 3.88 0 6.094-2.113 2.229-2.097 2.229-5.632v-3.086l.003.012V11.888l2.56-.495V8.486zm-79.362-.254h.1l2.203 6.893h-4.51zm-2.394-5.531-7.315 20.9-1.718.248v2.89h8.19v-2.89l-1.667-.297 1.561-4.88h6.753l1.593 4.88-1.667.297v2.89h8.19v-2.89l-1.718-.248-7.265-20.9z"/><path fill="#577138" d="M41.621 14.73c-.392-1.301-.587-1.952-.871-2.645-.548-1.338-1.244-2.427-2.287-3.776-2.441-3.151-3.661-4.73-5.652-5.988C28.49-.41 23.943.073 23.425.136c-1.552.187-4.965.868-7.89 3.69-1.658 1.601-2.699 3.897-3.186 5.068-.54 9.34 8.623 13.082 10.78 14.646.694.33 2.288 1.032 3.582 1.7 2.988 1.543 5.06 1.862 6.128 2.049 2.329.408 5.95-.514 7.67-2.441 1.647-1.847 2.126-4.338 1.734-6.558-.12-.683-.121-1.897-.623-3.564z"/><path fill="#a3b34f" d="M40.304 13.727c-.624-1.665-1.356-2.77-2.224-4.08-1.063-1.604-2.013-2.698-2.776-3.57-1.627-1.857-2.441-2.786-3.547-3.46-1.908-1.165-3.753-1.375-4.802-1.484-2.474-.257-4.366.268-5.286.532-.946.272-2.82.83-4.778 2.368-1.774 1.392-2.865 3.49-3.458 4.618-.545 1.018 2.807 9.185 10.551 14.013.397.205 1.5.708 2.181 1.053q.332.167.616.305.461.211.865.405c.87.393 1.408.592 2.121.965 2.47 1.292 5.077.924 5.464.863.512-.078 4.077-.63 5.552-3.466.778-1.496.643-2.986.458-5.025a15.7 15.7 0 0 0-.94-4.04"/><path fill="#dde072" d="M28.346 23.726c2.595.994 3.45 1.513 4.56 1.648.366.044 3.851.263 5.894-1.667 1.521-1.436 1.594-2.888 1.682-3.572.303-2.358-.367-5.38-1.15-6.865-1.028-1.95-1.294-2.36-4.052-6.014-2.042-2.702-3.065-3.203-4.13-3.905-1.833-1.197-3.952-1.225-5.39-1.284-1.058-.043-3.04.345-4.94 1.01-2.967 1.044-4.7 2.793-5.918 5.27-1.352 2.855 5.483 12.161 10.236 14.064"/><path fill="#a3b34f" d="M29.234 18.14c1.655-.29 2.757-1.988 3.094-3.364.473-1.946-.506-3.57-1.158-4.653-.616-1.019-1.698-2.445-3.659-3.24-1.804-.734-3.206.156-3.859.52-2.88 4.257-.649 8.578 3.587 10.735.535.053 1.574.075 1.994.002"/><path fill="#577138" d="M24.44 22.15c.727-.867 2.124-2.666 2.689-3.784a7 7 0 0 0 .11-.23c.61-1.325 1.214-3.616 1.272-5.421.052-1.616-.501-2.709-.501-2.709-.564-1.47-2.186-1.973-2.897-2.245a7 7 0 0 0-1.638-.38c-1.045-.094-2.495.017-5.002.385a77 77 0 0 0-7.245 1.372c-2.769.675-4.295 1.046-6.054 1.897-2.032.983-3.951 1.911-4.782 3.951-.508 1.25-.464 2.508-.337 3.344 0 0 .548 5.47 4.311 8.257 3.152 2.337 7.799 3.2 11.263 2.253 2.732-.52 5.337-3.08 7.503-5.32.443-.448.976-.974 1.31-1.371z"/><path fill="#a3b34f" d="M21.011 21.234c-2.546 1.495-6.283 3.524-10.958 3.472q-.226-.002-.455-.012c-1.568-.063-5.733-.23-7.876-3.016-.591-.77-.94-1.62-1.13-2.199l-.005-.012a5.5 5.5 0 0 1-.24-1.017l-.003-.01v-.005l-.001-.002c-.12-.8-.162-1.997.32-3.18.788-1.935 2.572-2.798 4.638-3.797 1.731-.837 3.246-1.206 5.994-1.876q.527-.128 1.017-.241.554-.127 1.064-.235a63 63 0 0 1 1.95-.382l.003-.002a100 100 0 0 1 3.186-.506c2.483-.364 3.914-.476 4.934-.384a5.4 5.4 0 0 1 1.559.362c.728.278 2.083.797 2.738 2.102a3.4 3.4 0 0 1 .355 1.437c.04 1.176-.444 2.332-.705 2.953-1.463 3.484-4.183 5.255-6.386 6.55"/><path fill="#dde072" d="M19.407 21.406c2.425-1.248 4.392-2.68 5.406-3.797 1.685-1.854 2.372-3.738 2.52-5.271.167-1.718-.913-2.36-1.28-2.672-1.363-1.164-3.217-1.146-4.902-1.152-.765-.002-1.864.056-5.231.79-2.678.61-3.226.743-6.464 1.628-2.158.6-3.375 1.005-4.369 1.63-1.39.872-3.12 1.959-3.558 4.054-.545 2.599 1.378 4.764 1.769 5.174 1.881 1.963 4.475 2.198 6.262 2.204a32 32 0 0 0 1.954-.067c3.633-.2 6.134-1.618 7.893-2.52"/><path fill="#5e3108" d="M9.992 10.948c-.278.21-.73.656-.964.895l-.646.723c-1.147 1.44-1.966 4.217-1.344 4.965.318.384.485.426.6.503 1.592.77 3.045 1.827 5.42 1.966l1.975-.002c.16-.007.395-.016.564-.03.44-.039.248-.042.552-.075 2.733-.448 6.372-2.382 6.231-5.088-.053-1.011-1.208-2.668-1.992-3.415-.834-.795-2.392-1.568-2.8-1.714-.192-.059-.42-.137-.801-.204a10 10 0 0 0-.877-.12q-.142-.012-.283-.02c-1.984-.123-3.764.394-5.137 1.268a8 8 0 0 0-.334.225q-.083.06-.164.122"/></svg>