<svg xmlns="http://www.w3.org/2000/svg" fill="currentColor" viewBox="0 0 512 83"><path d="M479.73 38.902h11.766c3.018 0 5.226.768 6.628 2.305 1.401 1.509 2.102 3.705 2.102 6.587 0 2.668-.823 4.688-2.466 6.062-1.644 1.347-4.027 2.022-7.154 2.022H479.73zm.004-23.726h8.084c3.396 0 5.942.646 7.64 1.94 1.725 1.293 2.587 3.298 2.587 6.02 0 2.48-.85 4.368-2.548 5.659-1.698 1.293-4.122 1.94-7.276 1.94h-8.489v-15.56zm-54.558 0h7.803c4.232 0 7.546 1.427 9.945 4.283 2.398 2.857 3.595 6.56 3.595 11.114v9.825c0 4.608-1.198 8.338-3.595 11.196-2.399 2.857-5.713 4.284-9.945 4.284h-7.803zm36.505-9.108v7.128l6.263 1.21v42.227l-6.263 1.214v7.075h28.94c6.817 0 12.086-1.442 15.804-4.324 3.718-2.91 5.575-7.181 5.575-12.815 0-3.261-.888-6.132-2.667-8.61-1.751-2.48-4.39-4.097-7.922-4.85 2.749-1.078 4.838-2.68 6.264-4.81 1.455-2.156 2.183-4.596 2.183-7.316 0-5.364-1.94-9.39-5.82-12.087-3.88-2.695-9.283-4.042-16.208-4.042zm-54.558-.001v7.129l6.264 1.21v42.227l-6.264 1.214v7.075h26.474c7.194 0 13.124-2.278 17.784-6.833 4.663-4.58 6.992-10.48 6.992-17.701v-9.744c0-7.194-2.332-13.084-6.992-17.665-4.663-4.608-10.59-6.912-17.784-6.912zM233.42 45.634h6.021v7.22c-.808 1.16-1.94 2.13-3.396 2.91-1.455.756-3.072 1.133-4.85 1.133-1.698 0-3.031-.42-4.002-1.255-.944-.835-1.417-1.993-1.417-3.476 0-1.643.647-3.595 1.94-4.755 1.294-1.185 3.195-1.778 5.7-1.778m98.681-16.22c1.752 0 3.247.363 4.486 1.09 1.266.728 2.276 1.752 3.03 3.072V52.57c-.754 1.267-1.764 2.237-3.03 2.91-1.24.647-2.763.97-4.568.97-2.91 0-5.012-1.09-6.307-3.27-1.293-2.21-1.94-5.23-1.94-9.055v-.85c0-4.12.661-7.465 1.981-10.023 1.348-2.56 3.464-3.84 6.347-3.84m48.376-.082c3.072 0 5.321 1.225 6.75 3.677s2.143 5.62 2.143 9.5v.848c0 3.963-.715 7.154-2.143 9.58-1.4 2.426-3.626 3.639-6.67 3.639-3.128 0-5.389-1.2-6.79-3.598-1.401-2.426-2.103-5.634-2.103-9.62v-.848c0-3.88.702-7.05 2.103-9.5 1.4-2.453 3.638-3.678 6.71-3.678m0-9.094c-6.44 0-11.493 2.09-15.158 6.266-3.639 4.15-5.456 9.486-5.456 16.006v.847c0 6.576 1.819 11.94 5.456 16.09 3.665 4.124 8.745 6.183 15.238 6.183 6.413 0 11.44-2.062 15.076-6.184 3.665-4.15 5.495-9.513 5.495-16.09v-.846c0-6.548-1.832-11.896-5.495-16.046-3.639-4.15-8.69-6.226-15.159-6.226m-92.408 0c-2.64 0-5.027.62-7.154 1.86-2.129 1.24-3.92 2.978-5.373 5.214l-.526-6.267H257.75v7.115l6.264 1.213v27.12l-5.658 1.214v7.074h22.23v-7.074l-4.767-1.214V33.047a8.46 8.46 0 0 1 3.112-2.666c1.239-.647 2.64-.97 4.204-.97 2.398 0 4.189.618 5.373 1.858 1.186 1.213 1.779 3.29 1.779 6.227V56.49l-5.052 1.214v7.075h22.554v-7.076l-5.658-1.214V37.456c0-5.927-1.24-10.281-3.717-13.056-2.48-2.776-5.927-4.165-10.349-4.165m-55.047 0c-2.858 0-5.523.4-8.014 1.153-1.181.312-2.42.713-3.629 1.248-4.638 2.055-6.27 3.782-6.27 3.782l5.591 7.393s1.782-1.924 6.839-4.082c1.48-.626 3.31-.877 4.709-.884 2.371 0 4.164.58 5.376 1.738 1.213 1.158 1.82 2.789 1.82 4.89v3.733h-6.022c-6.359 0-11.181 1.67-14.47 3.907-3.287 2.237-4.933 5.404-4.933 9.498 0 4.014 1.254 7.194 3.76 9.537 2.534 2.318 5.943 3.476 10.227 3.476 2.587 0 4.877-.5 6.87-1.495 2.02-.997 3.73-2.305 5.13-3.923.136.78.325 1.564.568 2.345.242.755.526 1.496.849 2.223h13.62V57.7l-3.596-.485a16.427 16.427 0 0 1-.161-1.7V35.549c0-4.905-1.699-8.678-5.095-11.32-3.37-2.667-7.76-4.001-13.176-4.001m-25.91 0c-2.13 0-4.003.635-5.619 1.9-1.617 1.267-2.938 3.032-3.962 5.294l-.527-6.385h-17.257v7.114l6.263 1.214v27.12l-5.657 1.213v7.074h23.12v-7.074l-5.658-1.214v-21.26c.593-1.24 1.456-2.197 2.587-2.871 1.132-.674 2.56-1.01 4.287-1.01l4.85.122 1.252-10.752c-.458-.135-1.037-.243-1.737-.324a12.237 12.237 0 0 0-1.94-.161m134.2-.147-.983 6.453c-1.32-2.02-2.911-3.57-4.77-4.648-1.86-1.104-4.015-1.657-6.466-1.657-5.416 0-9.632 2.116-12.65 6.346-2.99 4.232-4.488 9.795-4.488 16.695v.85c0 6.44 1.497 11.639 4.489 15.6 3.018 3.936 7.209 5.904 12.57 5.904 2.263 0 4.271-.431 6.022-1.293 1.751-.863 3.274-2.116 4.565-3.761v2.869c0 3.127-.712 5.566-2.14 7.316-1.429 1.752-3.584 2.628-6.469 2.628-2.102 0-4.097-.243-5.982-.73a35.685 35.685 0 0 1-5.658-1.898l-2.183 8.286c2.102 1.05 4.394 1.872 6.872 2.465 2.48.62 4.823.93 7.032.93 6.33 0 11.306-1.724 14.917-5.173 3.638-3.421 5.455-8.017 5.455-13.785v-7.555l.01.028V28.409l6.266-1.214V20.08h-16.407zm-194.27-.621h.243l5.395 16.872h-11.037zm-5.86-13.54-17.907 51.16-4.204.609v7.074h20.048v-7.074l-4.081-.73 3.821-11.945h16.53l3.901 11.946-4.082.729v7.074h20.048v-7.074l-4.204-.608L153.26 5.919zM60.047.006c-1.384.03-2.318.139-2.638.178-3.797.458-12.152 2.119-19.314 9.03-3.983 3.848-6.492 9.31-7.711 12.221a23.31 23.31 0 0 1 3.243-.71c4.065-.566 7.785-.055 10.514.948 3.849-.683 6.374-.986 7.706-.982 4.122.018 8.662-.034 12.001 2.811.9.77 3.546 2.344 3.135 6.552-.363 3.75-2.05 8.36-6.175 12.896-2.482 2.733-7.292 6.245-13.23 9.298-4.303 2.21-10.43 5.679-19.327 6.167-1.432.082-3.062.178-4.779.173-4.376-.017-10.725-.597-15.331-5.401-.956-1-5.666-6.306-4.334-12.672 1.073-5.124 5.315-7.775 8.719-9.912 1.933-1.215 4.54-2.214 8.048-3.26 2.53-2.725 5.51-4.399 8.541-5.458-6.028 1.35-12.04 2.82-16.382 4.973-4.973 2.409-9.67 4.68-11.707 9.674C-.215 39.59-.111 42.674.2 44.715c0 0 1.34 13.389 10.557 20.213 7.715 5.722 19.084 7.837 27.565 5.518 6.673-1.271 13.04-7.516 18.337-12.99l.025.017c1.696.804 5.601 2.525 8.767 4.164 7.317 3.776 12.386 4.559 15.007 5.017 5.695.995 14.566-1.263 18.773-5.98 4.03-4.52 5.203-10.614 4.238-16.05-.29-1.67-.285-4.64-1.51-8.718-.96-3.188-1.44-4.775-2.136-6.47-1.34-3.278-3.048-5.938-5.6-9.242-5.977-7.715-8.96-11.586-13.84-14.66C72.454.517 64.21-.076 60.045.007zm3.084 4.909c3.52.142 8.71.199 13.194 3.135 2.608 1.717 5.112 2.941 10.111 9.558 6.747 8.947 7.4 9.95 9.917 14.725 1.915 3.633 3.555 11.028 2.81 16.802-.215 1.673-.389 5.228-4.108 8.74-5.003 4.727-13.535 4.195-14.43 4.09-2.72-.332-4.814-1.604-11.167-4.038l-7.854-3.218c-.523-.208-1.059-.497-1.6-.778 1.804-2.158 5.112-6.436 6.474-9.13 1-2.015 1.665-4.26 2.11-5.925.338-1.332.844-3.308 1.056-5.206.108-.99.195-2.003.212-2.868.017-.895-.004-1.055-.043-1.738a17.97 17.97 0 0 0-.87-4.005 10.416 10.416 0 0 0-1.976-3.235 11.342 11.342 0 0 0-2.205-1.587c-.9-.489-2.05-.934-2.794-1.224-1.384-.54-2.53-.847-4.615-1.107a21.65 21.65 0 0 0-1.95-.07c-2.366.023-5.51.347-10.111 1.026-2.94.41-5.869.9-8.753 1.444l.008-.026c2.984-6.063 7.223-10.344 14.488-12.9 4.65-1.63 9.506-2.573 12.097-2.465zm1.176 11.097a8.993 8.993 0 0 0-3.118.484c1.635.402 3.213 1.229 4.601 1.843 1.103.596 2.12 1.353 2.738 1.998 1.077 1.128 1.99 2.664 2.46 4.022.429 1.254.891 3.07.978 4.584.039.648.069.951.052 1.894a34.665 34.665 0 0 1-.23 3.075c-.233 2.11-.77 4.173-1.107 5.5a33.852 33.852 0 0 1-1.656 4.948c1.034.017 2.033-.009 2.604-.108 4.052-.71 6.75-4.87 7.576-8.234 1.16-4.766-1.232-8.736-2.828-11.387-1.51-2.495-4.165-5.985-8.965-7.931a9.036 9.036 0 0 0-3.105-.688m-30.385 6.85c-2.275.28-4.486.95-6.535 1.977-2.292 1.098-4.281 2.802-6.802 5.773-2.812 3.525-4.81 10.323-3.287 12.152.778.943 1.19 1.038 1.47 1.224 3.897 1.886 7.456 4.476 13.269 4.818h4.835c1.012.009 2.357-.216 2.733-.255 6.69-1.099 15.59-5.834 15.248-12.455-.13-2.478-2.953-6.54-4.874-8.369-1.863-1.773-4.96-3.407-6.288-3.965-1.15-.567-2.49-.723-3.84-.921-2.033-.338-4.203-.208-5.929.021"/></svg>