<svg xmlns="http://www.w3.org/2000/svg" fill="#002840" viewBox="0 0 486.2 105"><path d="M175.57 25.194v47.6h-7.6v-47.6zm137.5 28v19.7h-7.6v-18.5c.2-4.2-3.2-7.8-7.4-7.9-4.2-.2-7.8 3.2-7.9 7.4v19h-7.7v-18.5c.3-4.1-2.8-7.6-6.9-7.9h-.8c-4.2 0-7.7 3.5-7.6 7.7v18.6h-7.7v-32.7h7.6v3.8c2.4-2.8 6-4.5 9.7-4.4 4.4-.1 8.5 2 10.9 5.6 2.7-3.6 7-5.7 11.5-5.6 7.3-.3 13.5 5.4 13.8 12.7.1.3.1.6.1 1m25.1-13.7v8.1c-7.4-.5-11.1 3.3-11.1 8.3v17h-7.6v-32.8h7.6v4.6c2.7-3.3 6.8-5.3 11.1-5.2m34.6 19.7h-25.8c1 4.5 5.1 7.7 9.8 7.5 3.8.1 7.4-1.9 9.2-5.3l6.4 2.7c-2.8 5.8-8.7 9.5-15.1 9.4-9.3.4-17.2-6.8-17.6-16.1v-.9c-.2-9.2 7.1-16.8 16.3-17h.7c9.1-.1 16.5 7.1 16.6 16.2-.2 1.1-.3 2.3-.5 3.5m-25.8-5.8h18.9c-1.1-4.2-4.9-7.2-9.2-7.2-4.5-.1-8.5 2.9-9.7 7.2m64.4-13.3v32.7h-7.6v-4.4c-2.7 3.3-6.8 5.1-11 5-9.2 0-16-7-16-17s6.8-17 16-17c4.2-.1 8.3 1.8 11 5v-4.4zm-7.6 16.4c.2-5.4-4-9.9-9.3-10.1h-.3c-5.6.3-9.8 5.1-9.5 10.7.3 5.1 4.4 9.2 9.5 9.5 5.4 0 9.7-4.4 9.7-9.8-.1-.1-.1-.2-.1-.3m13 0c-.2-9.2 7.1-16.8 16.3-17h.6c7-.2 13.3 4 16 10.5l-7.1 2.4c-1.5-3.5-4.9-5.8-8.7-5.8-5.2 0-9.5 4.1-9.5 9.3v.6c-.2 5.3 3.8 9.7 9.1 10 4.1.2 7.9-2.3 9.4-6.2l6.9 2.7c-2.6 6.5-9 10.7-16 10.6-9.2.2-16.8-7-17-16.2zm69.4-2.6v19h-7.6v-17.8c.3-4.5-3.1-8.3-7.6-8.6h-.8c-4.6-.1-8.4 3.6-8.5 8.2v18.1h-7.6v-47.6h7.6v19.1c5-5.8 13.8-6.5 19.6-1.6 3.2 2.8 5 6.9 4.9 11.2m-351-11.5v-17.2h-7.6v47.6h7.6v-2.3c2.8 1.8 6 2.7 9.3 2.6 2.2 0 4.4-.4 6.4-1.2 8.6-3.9 12.4-14 8.5-22.5-1.7-3.8-4.7-6.8-8.5-8.5-2-.8-4.2-1.2-6.4-1.2-3.2 0-6.5.9-9.3 2.7m8.5 24c-3.5 0-6.8-1.9-8.5-5-1.6-3.1-1.6-6.8 0-9.8a9.3 9.3 0 0 1 8.5-5c5.5.2 9.8 4.7 9.7 10.2-.2 5.2-4.4 9.5-9.7 9.6m37.536-9.923c-.2-9.5 7.5-17.4 17-17.6s17.4 7.5 17.6 17-7.5 17.4-17 17.6h-.3c-9.3.3-17-7-17.3-16.2zm17.3 9.9c5.5.2 10.1-4.2 10.3-9.7s-4.2-10.1-9.7-10.3-10.1 4.2-10.3 9.7v.3c-.2 5.3 4.1 9.8 9.4 10zm21.096-9.9c-.2-9.6 7.4-17.4 17-17.6s17.4 7.4 17.6 17-7.4 17.4-17 17.6h-.3c-9.3.3-17-7-17.3-16.2zm17.3 9.9c5.5.2 10.1-4.2 10.3-9.7s-4.2-10.1-9.7-10.3-10.1 4.2-10.3 9.7v.3c-.2 5.3 4.1 9.8 9.4 10z"/><ellipse cx="52.6" cy="52.5" fill="#ffd500" rx="52.6" ry="52.5"/><path d="m63.348 41.594-2.6 6.5c2.8 1.8 4.5 4.9 4.4 8.2-.1 5.2-4.5 9.2-9.6 9.1-5.2-.1-9.2-4.5-9.1-9.6.1-4.9 4-8.9 8.9-9.1l2.4-6.7c-8.8-1.4-17.1 4.6-18.5 13.4-.1.8-.2 1.7-.2 2.5v16.9h7.4v-2.6c2.8 1.8 6 2.7 9.3 2.6 9 .3 16.4-6.8 16.7-15.8v-.7c.2-6.2-3.4-12-9.1-14.7m-24.2-.8c2.1-2.1 4.6-3.8 7.4-5v-10.6h-7.4z"/></svg>