<svg xmlns="http://www.w3.org/2000/svg" fill="currentColor" viewBox="0 0 145.1 31.25"><path d="M52.383 7.511v14.161h-2.279V7.511zm41.06 8.3v5.853h-2.279v-5.477a2.289 2.289 0 1 0-4.577-.057v5.533h-2.28v-5.476a2.207 2.207 0 0 0-2.3-2.36 2.293 2.293 0 0 0-2.279 2.379v5.457h-2.279V11.92h2.279v1.133a3.788 3.788 0 0 1 2.905-1.322 3.857 3.857 0 0 1 3.266 1.661 4.211 4.211 0 0 1 3.418-1.661 3.951 3.951 0 0 1 4.126 4.08m7.48-4.08v2.4c-2.2-.151-3.3.982-3.3 2.474v5.06h-2.279v-9.743h2.279V13.3a4.2 4.2 0 0 1 3.3-1.569m10.33 5.88h-7.71a2.86 2.86 0 0 0 2.925 2.228 2.967 2.967 0 0 0 2.734-1.567l1.9.794a4.966 4.966 0 0 1-4.519 2.794 5.024 5.024 0 0 1-5.26-5.06 4.965 4.965 0 0 1 5.07-5.06 4.884 4.884 0 0 1 4.86 5.871m-7.69-1.718h5.635a2.834 2.834 0 0 0-2.754-2.134 2.9 2.9 0 0 0-2.881 2.135zm19.227-3.972v9.743h-2.279v-1.3a4.161 4.161 0 0 1-3.285 1.492 5.069 5.069 0 0 1 0-10.121 4.164 4.164 0 0 1 3.285 1.491v-1.3zm-2.279 4.871a2.9 2.9 0 0 0-2.887-3 3.007 3.007 0 0 0 0 6 2.9 2.9 0 0 0 2.887-3m3.872-.001a4.96 4.96 0 0 1 5.051-5.06 5.019 5.019 0 0 1 4.77 3.116l-2.108.717a2.907 2.907 0 0 0-2.6-1.737 2.806 2.806 0 0 0-2.83 2.964 2.845 2.845 0 0 0 5.507 1.114l2.051.793a5.015 5.015 0 0 1-4.766 3.153 4.942 4.942 0 0 1-5.075-5.06m20.72-.77v5.646h-2.279V16.38a2.41 2.41 0 0 0-2.507-2.549 2.478 2.478 0 0 0-2.525 2.587v5.249h-2.279V7.505h2.279v5.682a4.155 4.155 0 0 1 7.311 2.832zM40.348 12.62V7.51h-2.275v14.161h2.279v-.694a5.147 5.147 0 0 0 2.789.787 5.3 5.3 0 0 0 1.92-.353 5.059 5.059 0 0 0-.013-9.23 5.3 5.3 0 0 0-1.907-.348 5.145 5.145 0 0 0-2.789.787m2.524 7.144a2.808 2.808 0 0 1-2.524-1.5 3.144 3.144 0 0 1 0-2.932 2.808 2.808 0 0 1 2.524-1.5 2.965 2.965 0 0 1 0 5.929ZM54.079 16.8a5.166 5.166 0 1 1 5.166 5.061 5 5 0 0 1-5.166-5.061m5.166 2.966a2.966 2.966 0 1 0-2.887-2.966 2.886 2.886 0 0 0 2.886 2.97zm6.301-2.966a5.166 5.166 0 1 1 5.166 5.061 5 5 0 0 1-5.166-5.061m5.166 2.966a2.966 2.966 0 1 0-2.889-2.966 2.887 2.887 0 0 0 2.889 2.97z"/><mask id="a"><ellipse cx="15.714" cy="15.625" fill="#fff" rx="15.714" ry="15.625"/><path fill="#000" d="m18.903 12.371-.77 1.947a2.858 2.858 0 0 1 1.325 2.452 2.79 2.79 0 1 1-2.914-2.858l.724-2a4.813 4.813 0 0 0-5.585 4.726h-.006v5.023h2.2v-.788a5.145 5.145 0 0 0 2.789.788 4.841 4.841 0 0 0 4.99-4.891 4.785 4.785 0 0 0-2.753-4.399m-7.23-.23a6.758 6.758 0 0 1 2.2-1.485V7.511h-2.2z"/></mask><ellipse cx="15.714" cy="15.625" mask="url(#a)" rx="15.714" ry="15.625"/></svg>