<svg xmlns="http://www.w3.org/2000/svg" fill="currentColor" viewBox="0 0 176 24"><path d="M122.743 0h-21.032l10.516 10.251zM14.853 12.822v-.168a4.37 4.37 0 0 0 2.154-1.673 4.17 4.17 0 0 0 .7-2.59c0-4.874-4.295-5.855-8.508-5.855H0v21.12h10.759c3.804 0 7.96-1.483 7.96-5.826a5.007 5.007 0 0 0-1.047-3.15 5.263 5.263 0 0 0-2.818-1.865M7.035 7.273h.706c1.267 0 2.917.094 2.913 1.818 0 1.695-1.427 1.724-2.694 1.724h-.925zm1.11 11.572H7.06v-3.962h.963c1.35 0 3.512 0 3.5 1.967-.013 2.083-1.996 1.99-3.377 1.99m27.528-3.3v-.17c2.943-.951 4.211-2.296 4.211-5.489 0-5.323-4.152-7.34-9.056-7.34h-9.547v21.12h7.42v-6.778h.453l3.562 6.779h9.015l-4.73-6.862a5.463 5.463 0 0 0-1.328-1.26m-6.25-3.669h-.732V7.736h.793c1.412 0 3.012.355 3.002 2.167-.01 1.715-1.71 1.97-3.062 1.97m21.649-9.329h-7.903v21.12h7.903zm14.95 6.441a7.139 7.139 0 0 1 4.644 2.132l-.231-8.04a17.002 17.002 0 0 0-5.307-.869 11.6 11.6 0 0 0-4.37.831 11.334 11.334 0 0 0-3.703 2.406A10.96 10.96 0 0 0 54.6 9.052a10.706 10.706 0 0 0-.833 4.25c-.017 1.411.258 2.812.808 4.119s1.363 2.494 2.392 3.491a10.929 10.929 0 0 0 3.601 2.315c1.348.53 2.79.794 4.244.775 1.91.02 3.81-.264 5.625-.84l.231-7.9a6.291 6.291 0 0 1-2.06 1.434 6.451 6.451 0 0 1-2.476.527c-1.147.019-2.255-.404-3.082-1.176s-1.305-1.831-1.33-2.945a4.036 4.036 0 0 1 .332-1.587c.217-.502.534-.958.934-1.34a4.27 4.27 0 0 1 1.393-.891 4.37 4.37 0 0 1 1.638-.303m18.691-6.774c-6.605 0-12.028 4.313-12.028 10.952 0 6.778 5.395 10.84 12.028 10.84s12.028-4.061 12.028-10.84c0-6.64-5.423-10.952-12.028-10.952m0 15.126a4.041 4.041 0 0 1-1.606-.274c-.51-.2-.97-.5-1.354-.882s-.679-.839-.87-1.34a3.724 3.724 0 0 1-.236-1.566c-.032-.534.05-1.07.241-1.572.19-.502.486-.961.868-1.348.381-.387.84-.693 1.35-.9s1.056-.308 1.607-.3a4.119 4.119 0 0 1 1.607.301 4.02 4.02 0 0 1 1.35.9c.381.386.676.845.867 1.347.191.503.274 1.038.242 1.572.034.533-.046 1.066-.237 1.567s-.487.956-.87 1.338a3.948 3.948 0 0 1-1.354.882c-.51.2-1.056.293-1.605.275M135.23 2.542l-7.557 21.12h8.28l.635-2.633h6.145l.722 2.633h8.278l-7.754-21.12zm2.72 13.675 1.517-7.118h.378c.146.952 1.548 7.118 1.548 7.118zm29.56-13.675v6.331c0 1.793.022 4.7.022 4.7l-6.684-11.031h-7.587v21.12h7.558V12.978l6.694 10.682h7.556V2.542z"/><path d="m123.34 2.542-9.501 9.263-1.61 1.563-1.609-1.563-9.502-9.263h-.1l-3.511 21.12h7.642l1.188-7.816 5.894 5.518 5.78-5.518 1.328 7.816h7.642l-3.576-21.12z"/><path d="M122.743 0h-21.032l10.516 10.251z"/></svg>