<svg xmlns="http://www.w3.org/2000/svg" fill="currentColor" fill-rule="evenodd" viewBox="0 0 3011 530"><path d="M1479.6 1.701c-10.439 4.171-18.492 13.483-21.445 24.799-.601 2.303-1.046 15.56-1.049 31.25L1457.1 85h75V0l-24.25.052c-19.794.042-24.985.345-28.25 1.649M346.4 77.2l-2.25 1.106v224.15c0 173 .274 224.42 1.2 225.35.887.887 10.243 1.2 35.893 1.2 30.713 0 34.763-.181 35.3-1.582 1.038-2.705.671-447.77-.371-449.42-.807-1.277-5.885-1.53-34.235-1.703-22.678-.138-34.004.15-35.537.903m1113.2 34.05c-.253.688-.612 58.4-.798 128.25-.367 138.04-.043 130.08-5.928 145.51-5.966 15.649-13.465 27.464-24.586 38.733-10.068 10.202-15.885 14.525-27.665 20.555-13.265 6.791-21.858 9.301-38.463 11.235-20.758 2.417-43.712-1.895-62.025-11.652-28.709-15.297-50.007-43.918-56.094-75.384-1.733-8.958-1.747-31.937-.024-41 4.606-24.232 18.97-48.24 38.5-64.348 7.106-5.861 20.618-13.702 28.763-16.692 34.543-12.678 69.17-8.791 100.26 11.254 5.94 3.829 7.243 4.308 9.25 3.393l2.336-1.064-.015-38.772c-.009-21.324-.346-39.261-.75-39.859-.754-1.116-10.836-5.069-19.735-7.737-29.296-8.784-65.892-9.557-95.5-2.017-61.798 15.739-109.09 59.825-129.04 120.29-4.51 13.67-6.666 24.885-8.158 42.443-2.374 27.915 3.257 61.611 14.275 85.429 1.607 3.476 2.923 6.659 2.923 7.073 0 .835 13.154 23.194 14.877 25.288.597.725 3.328 4.185 6.069 7.689 24.902 31.831 61.598 55.358 100.96 64.729 18.428 4.387 46.396 5.6 66.838 2.899 45.641-6.03 90.027-31.391 117.44-67.102 18.408-23.981 29.172-47.289 35.972-77.896l2.222-10 .343-131.25.342-131.25h-36.063c-27.938 0-36.166.282-36.523 1.25m-1291 55.312c-1.65.223-6.825.885-11.5 1.471-30.045 3.764-58.694 15.466-84.885 34.672-11.176 8.195-30.645 28.181-39.141 40.178C21.113 259.78 10.46 282.617 5.14 302.777c-5.019 19.019-6.641 52.935-3.452 72.166 7.313 44.101 26.682 79.704 59.047 108.54 33.27 29.644 75.218 45.501 120.37 45.501 41.181 0 78.855-12.72 111.32-37.585 9.59-7.345 26.678-24.285 26.678-26.447 0-2.02-47.701-49.952-49.711-49.952-.745 0-5.832 4.238-11.304 9.417-11.104 10.51-15.825 13.952-27.485 20.037-20.184 10.534-45.492 14.248-68.772 10.094-44.133-7.877-79.373-42.793-87.35-86.548-2.599-14.257-2.741-23.559-.556-36.592 5.948-35.482 26.329-63.922 57.178-79.786 21.419-11.014 45.344-14.972 66.922-11.071 24.925 4.506 41.987 13.362 62.222 32.296 4.205 3.934 8.483 7.153 9.508 7.153 2.392 0 49.348-46.884 49.348-49.272 0-3.556-21.547-23.309-37-33.919-20.339-13.965-49.637-25.131-75.5-28.774-8.523-1.2-33.001-2.149-38-1.473m447.5-.102c-.825.202-6.225.91-12 1.572-18.08 2.073-36.303 7.335-53.5 15.447-21.612 10.195-34.867 19.699-53 38.003-25.695 25.936-41.808 57.508-49.253 96.504-2.108 11.041-2.359 47.259-.398 57.514 9.083 47.506 28.997 82.528 63.673 111.98 19.544 16.598 48.258 30.975 73.978 37.041 37.608 8.87 85.834 4.115 117.47-11.582 3.253-1.614 6.141-2.935 6.417-2.935.789 0 12.54-6.875 18.59-10.876 24.762-16.375 48.045-42.532 61.506-69.097 8.425-16.624 15.896-41.031 18.393-60.079 3.267-24.922.381-53.535-7.965-78.986-9.232-28.153-23.358-50.701-45.527-72.674-33.33-33.034-74.618-50.367-123.39-51.8-7.425-.218-14.175-.231-15-.028m1446-.002c-.825.203-6.225.913-12 1.576-45.687 5.244-89.986 30.521-119.18 68.005-15.721 20.183-26.061 41.086-32.625 65.961-8.588 32.542-8.007 65.728 1.716 97.915 5.902 19.538 17.857 43.234 28.727 56.938 15.753 19.86 32.132 34.755 50.559 45.979 60.103 36.608 139.17 34.702 196.56-4.737 14.301-9.828 26.165-20.544 36.71-33.154 20.399-24.395 32.309-49.037 39.724-82.188 2.049-9.159 2.294-12.868 2.299-34.753.005-26.202-.628-31.365-6.13-50-4.155-14.072-5.211-16.845-11.013-28.914-9.466-19.69-20.915-35.517-37.001-51.149-28.632-27.824-61.83-44.192-101.34-49.967-7.577-1.108-34.229-2.197-37-1.512m755 .088c-1.375.227-6.775.912-12 1.521-36.29 4.234-73.363 22.002-100.75 48.29-29.413 28.227-46.72 60.838-54.278 102.28-1.925 10.55-2.108 14.25-1.657 33.366.54 22.861 1.762 31.09 7.262 48.909 3.02 9.784 9.227 24.861 13.115 31.855l3.722 6.691c2.686 4.817 12.28 18.541 16.461 23.545 20.776 24.872 48.973 44.915 77.834 55.325 32.077 11.571 70.217 13.956 102.8 6.426 26.883-6.213 51.957-18.186 72.5-34.619 9.659-7.726 25-23.282 25-25.351 0-2.248-47.276-49.781-49.513-49.781-.886 0-6.046 4.244-11.466 9.431-5.421 5.187-11.805 10.695-14.188 12.241-2.383 1.545-4.558 3.055-4.833 3.355s-3.761 2.24-7.746 4.312c-13.008 6.761-24.34 9.735-45.754 12.007-5.137.545-26.5-1.897-33-3.773-40.782-11.769-70.096-43.534-78.047-84.573-1.886-9.739-1.89-31.81-.007-40.685 7.339-34.575 28.062-61.612 59.054-77.048 8.601-4.283 17.545-7.169 28.998-9.357 40.991-7.83 85.364 10.985 108.69 46.09 5.365 8.072 11.808 20.571 11.808 22.906 0 .767-25.293 1.158-86.648 1.338l-86.648.256-1.821 5.5c-2.145 6.474-4.886 23.688-4.877 30.628.008 6.412 2.459 22.477 4.61 30.214l1.712 6.158h124.21c107.58 0 124.38-.195 125.42-1.457.665-.802 1.841-6.539 2.613-12.75 4.286-34.479-1.689-69.927-17.084-101.35-26.677-54.448-78.057-91.841-137.99-100.43-8.401-1.204-33.222-2.177-37.5-1.47m-1976.8 11.981-2.25 1.586v103.28c0 65.385.381 106.37 1.039 111.69 4.427 35.822 19.272 65.744 45.249 91.206 16.65 16.319 36.751 28.664 57.212 35.136 4.95 1.566 9.675 3.235 10.5 3.71 4.151 2.386 7.429 2.816 26.395 3.462 21.77.741 31.95-.07 46.821-3.731 57.118-14.06 100.45-59.927 112.5-119.08 1.514-7.432 1.722-19.615 1.988-116.8.188-68.498-.058-109.05-.667-110-1.491-2.319-66.172-2.798-69.655-.516l-2.384 1.562v102.53c0 73.377-.332 104.58-1.167 109.73-2.407 14.829-9.519 28.279-21.333 40.34-11.234 11.47-24.506 19.073-38 21.77-10.606 2.12-18.736 2.511-22.192 1.067-1.954-.816-6.17-1.484-9.371-1.484-14.528 0-35.647-12.491-47.671-28.196-5.325-6.955-11.084-18.44-13.66-27.241-2.016-6.89-2.079-9.668-2.586-113.23-.286-58.392-.894-106.54-1.352-107s-15.758-.959-34-1.113c-28.978-.245-33.452-.08-35.418 1.307m728.97.03c-2.223 1.556-2.223 1.562-2.223 35.345 0 31.463.126 33.902 1.829 35.443 1.671 1.513 9.145 1.655 86.918 1.655 46.799 0 85.801.273 86.671.607s1.582 1.369 1.582 2.301c0 .931-4.883 8.87-10.851 17.643a96550.443 96550.443 0 0 1-46.786 68.693c-9.274 13.609-27.438 40.286-40.363 59.282s-37.338 54.845-54.25 79.665-30.75 45.641-30.75 46.268c0 3.563-.971 3.541 157.5 3.541 119.3 0 155.38-.277 156.3-1.2.887-.887 1.2-10.148 1.2-35.465 0-32.853-.08-34.307-1.934-35.3-1.29-.69-30.419-1.035-87.465-1.035-81.572 0-85.576-.084-86.501-1.813-1.231-2.299-.993-2.734 11.48-20.958 5.978-8.736 11.947-17.479 17.906-26.229a35391.212 35391.212 0 0 1 33.059-48.5c3.758-5.5 9.981-14.725 13.829-20.5s7.259-10.725 7.579-11 3.124-4.325 6.231-9 9.804-14.575 14.883-22 14.719-21.6 21.424-31.5c6.704-9.9 15.261-22.5 19.014-28a3254.644 3254.644 0 0 0 13.848-20.5c3.862-5.775 7.284-10.725 7.604-11 1.775-1.523 15.043-22.173 15.043-23.412 0-.811-1-2.175-2.223-3.031-1.988-1.393-18.369-1.557-155.28-1.557s-153.29.164-155.28 1.557m875.78-.972c-25.6 2.743-38.932 6.391-58.5 16.005-17.841 8.765-33.095 20.437-46.208 35.356-7.011 7.976-17.602 22.934-18.971 26.792-.344.969-1.157 2.437-1.808 3.262-2.435 3.087-10.052 22.892-12.693 33-3.997 15.305-4.092 17.965-4.509 127.23-.287 75.026-.088 106.32.684 107.76 1.068 1.994 1.781 2.028 36.297 1.771l35.208-.263.54-106c.526-103.43.589-106.17 2.608-113 6.986-23.632 21.08-40.894 41.852-51.257 6.511-3.248 19.407-6.677 29.094-7.737 6.007-.657 20.553 1.199 28.406 3.624 19.242 5.943 38.355 22.927 47.119 41.87 7.175 15.507 6.881 10.13 6.881 125.87 0 81.421.269 104.11 1.25 105.45 1.143 1.561 4.234 1.684 36.25 1.442l35-.265.288-107c.307-113.84.301-114.02-4.475-131.5-14.748-53.971-57.361-95.447-111.31-108.34-12.975-3.101-33.734-5.068-43-4.075m-1833 62.596c-18.141 3.794-19.209 4.128-31.896 9.989-27.453 12.683-49.472 39.518-57.709 70.33-3.611 13.507-4.407 33.144-1.869 46.098 6.873 35.072 27.509 62.731 58.474 78.375 13.119 6.628 23.008 9.129 45.263 11.448 4.454.464 24.408-1.734 30.774-3.39 17.635-4.588 37.087-15.858 49.82-28.867 10.822-11.056 20.69-26.745 24.947-39.664 5.675-17.219 5.652-17.066 5.596-37-.052-18.501-.138-19.272-3.264-29.345-9.47-30.51-28.906-53.941-56.127-67.665-3.02-1.522-6.62-3.13-8-3.572-1.38-.443-4.534-1.545-7.009-2.45-12.701-4.643-37.093-6.777-49-4.287m1442 .91c-11.94 2.351-20.436 5.262-30 10.281-20.892 10.963-36.776 27.018-46.998 47.504-4.956 9.932-6.307 13.607-9.197 25.027-2.839 11.216-3.083 35.952-.453 46.097 2.911 11.234 4.768 16.874 7.246 22.012 1.321 2.738 2.402 5.249 2.402 5.579 0 2.252 12.736 19.186 19.871 26.421 13.67 13.861 25.736 21.392 43.375 27.073 9.527 3.069 30.685 6.175 36.881 5.416l12.872-1.58c21.786-2.672 43.563-13.498 60.022-29.838 12.504-12.415 20.525-25.042 26.095-41.083 5.135-14.788 6.093-20.41 6.138-36 .046-16.259-2.183-27.761-8.16-42.119-8.483-20.379-27.686-42.426-45.063-51.737-25.749-13.799-49.906-18.001-75.031-13.053"/></svg>