<svg xmlns="http://www.w3.org/2000/svg" fill="currentColor" viewBox="0 0 265 159"><path d="M61.5 78.8c0-3.5.7-6.7 2.1-9.6 1.4-2.8 3.4-5 5.9-6.6 2.5-1.5 5.5-2.3 8.8-2.3 4.9 0 8.9 1.6 11.9 4.7s4.7 7.3 4.9 12.5v1.9c0 3.6-.7 6.8-2.1 9.6s-3.3 5-5.9 6.5-5.5 2.3-8.9 2.3c-5.1 0-9.2-1.7-12.3-5.1s-4.6-7.9-4.6-13.6v-.3zm8.1.7c0 3.7.8 6.6 2.3 8.8 1.5 2.1 3.7 3.2 6.4 3.2s4.9-1.1 6.4-3.2S87 83 87 78.9c0-3.7-.8-6.6-2.4-8.7S80.9 67 78.2 67s-4.8 1.1-6.3 3.2-2.3 5.1-2.3 9.3m52.7 7.9c0-1.5-.6-2.6-1.8-3.3-1.2-.8-3.2-1.4-5.9-2-2.8-.6-5.1-1.3-6.9-2.2-4.1-2-6.1-4.8-6.1-8.5 0-3.1 1.3-5.7 3.9-7.8s6-3.1 10-3.1c4.3 0 7.8 1.1 10.5 3.2s4 4.9 4 8.3h-8.1c0-1.6-.6-2.9-1.7-3.9-1.2-1-2.7-1.6-4.6-1.6-1.8 0-3.2.4-4.4 1.2-1.1.8-1.7 1.9-1.7 3.3 0 1.3.5 2.2 1.6 2.9 1 .7 3.2 1.4 6.4 2.1s5.7 1.5 7.5 2.5 3.2 2.1 4.1 3.5 1.3 3 1.3 5c0 3.3-1.3 5.9-4 7.9s-6.2 3-10.6 3c-3 0-5.6-.5-7.9-1.6s-4.1-2.5-5.4-4.4-1.9-3.9-1.9-6.1h7.9c.1 1.9.8 3.4 2.2 4.4 1.3 1 3.1 1.6 5.3 1.6 2.1 0 3.8-.4 4.9-1.2.8-.8 1.4-1.9 1.4-3.2m36.7 9.9c-.4-.7-.7-1.8-.9-3.4-2.6 2.7-5.8 4-9.5 4-3.6 0-6.6-1-8.9-3.1s-3.4-4.6-3.4-7.7c0-3.9 1.4-6.8 4.3-8.9s7-3.1 12.3-3.1h5v-2.4c0-1.9-.5-3.4-1.6-4.5-1-1.1-2.6-1.7-4.8-1.7-1.9 0-3.4.5-4.6 1.4s-1.8 2.1-1.8 3.5H137c0-2 .7-3.8 2-5.6 1.3-1.7 3.1-3.1 5.4-4.1s4.8-1.5 7.6-1.5c4.2 0 7.6 1.1 10.1 3.2s3.8 5.1 3.9 9v16.3c0 3.3.5 5.9 1.4 7.8v.6H159zm-8.9-5.9c1.6 0 3.1-.4 4.5-1.2s2.5-1.8 3.2-3.1v-6.8h-4.4c-3 0-5.3.5-6.8 1.6-1.5 1-2.3 2.5-2.3 4.5 0 1.6.5 2.8 1.6 3.7 1.1.8 2.4 1.3 4.2 1.3M182 61l.2 4.2c2.7-3.2 6.2-4.9 10.5-4.9 7.5 0 11.4 4.3 11.5 13v23.9h-8.1V73.8c0-2.3-.5-4-1.5-5.1S192 67 189.7 67c-3.3 0-5.7 1.5-7.3 4.5v25.8h-8.1V61zm40.8-8.8V61h6.4v6h-6.4v20.2c0 1.4.3 2.4.8 3s1.5.9 2.9.9c.9 0 1.9-.1 2.8-.3v6.3c-1.9.5-3.6.8-5.4.8-6.2 0-9.4-3.4-9.4-10.3V67.1h-6v-6h6v-8.8h8.3zM257 97.3c-.4-.7-.7-1.8-.9-3.4-2.6 2.7-5.8 4-9.5 4-3.6 0-6.6-1-8.9-3.1s-3.4-4.6-3.4-7.7c0-3.9 1.4-6.8 4.3-8.9s7-3.1 12.3-3.1h5v-2.4c0-1.9-.5-3.4-1.6-4.5-1-1.1-2.6-1.7-4.8-1.7-1.9 0-3.4.5-4.6 1.4s-1.8 2.1-1.8 3.5H235c0-2 .7-3.8 2-5.6 1.3-1.7 3.1-3.1 5.4-4.1s4.8-1.5 7.6-1.5c4.2 0 7.6 1.1 10.1 3.2s3.8 5.1 3.9 9v16.3c0 3.3.5 5.9 1.4 7.8v.6H257zm-8.9-5.9c1.6 0 3.1-.4 4.5-1.2s2.5-1.8 3.2-3.1v-6.8h-4.4c-3 0-5.3.5-6.8 1.6-1.5 1-2.3 2.5-2.3 4.5 0 1.6.5 2.8 1.6 3.7 1.1.8 2.5 1.3 4.2 1.3M58.9 30.7c-.4 1.9.3 3.8 1.8 5 .5.4 1.1.7 1.8.8 2.6.6 5.2-1 5.8-3.6.3-1.3.1-2.5-.6-3.6s-1.7-1.9-3-2.2-2.5-.1-3.6.6-1.9 1.7-2.2 3m43.7-2.3c.7.5 1.4.8 2.2 1 3.3.8 6.6-1.3 7.4-4.6.4-1.6.1-3.2-.7-4.6-.9-1.4-2.2-2.4-3.8-2.8s-3.2-.1-4.6.7c-1.4.9-2.4 2.2-2.8 3.8-.6 2.5.3 5 2.3 6.5m-45.5 1.8c.4-1.6 1.4-3 2.7-3.9L48.3 6.4c-3.1 1.3-6.1 2.8-8.9 4.5-5.9 3.4-11.2 7.6-16 12.4S14.5 33.5 11 39.4c-.3.5-.5 1-.8 1.4l46.7-8.7c0-.6.1-1.3.2-1.9m-24.3 88.4c0 1.7 1 3.3 2.6 4 .5.2 1.1.3 1.7.3 2.4 0 4.3-1.9 4.3-4.3s-1.9-4.3-4.3-4.3c-2.3-.1-4.3 1.9-4.3 4.3m-8.9-21.5c0-1.9-1.6-3.5-3.6-3.5s-3.6 1.6-3.6 3.5c0 1.4.8 2.7 2.2 3.2.4.2.9.3 1.4.3 2.1-.1 3.6-1.6 3.6-3.5m68 34.1c0 1.4.8 2.7 2.2 3.2.4.2.9.3 1.4.3 2 0 3.6-1.6 3.6-3.5s-1.6-3.5-3.6-3.5-3.6 1.6-3.6 3.5"/><path d="M31 118.6c0-1.4.5-2.7 1.3-3.8l-9.4-13c-.8.4-1.6.6-2.5.6-.7 0-1.5-.1-2.1-.4-2-.8-3.3-2.8-3.3-4.9 0-1.5.6-2.8 1.6-3.8L.7 71.3C.4 74 .3 76.7.3 79.4c0 7.3.9 14.4 2.8 21.1s4.5 13 8 18.9c3.5 5.8 7.6 11.2 12.4 16 1.3 1.3 2.6 2.5 4 3.7l6.5-15.3c-1.9-1.1-3-3.1-3-5.2m95.4 19.8-17.7-25.5c-.8-1.1-1.7-1.7-2.5-1.9-.8-.1-1.9.2-3.1.9-3.4 2.6-7.2 4.5-11.3 6-.7.2-1.4.4-2.2.6l4.3 7.5c.5-.1 1-.2 1.5-.2 3 0 5.4 2.4 5.4 5.4 0 1.6-.8 3.1-1.9 4.1l9.1 17.9c5.6-2.2 11-5 16-8.3 1.2-.7 2-1.6 2.6-2.6.6-1.1.5-2.4-.2-3.9m-31-1.8c-.7 0-1.5-.1-2.1-.4-2-.8-3.3-2.8-3.3-4.9 0-1.8.9-3.3 2.2-4.3l-4.5-7.9c-2.9.7-5.9 1-9 1-5.7 0-10.9-1.1-15.7-3.2s-8.9-5.1-12.3-8.8c-2-2.1-3.6-4.4-5.1-6.9l-5.2 12.1c1.8 1.1 2.9 3 2.9 5.2 0 3.4-2.8 6.2-6.2 6.2-.5 0-1-.1-1.5-.2l-6.7 15.8c3.3 2.7 6.8 5.2 10.5 7.4 5.9 3.5 12.2 6.1 18.9 8s13.8 2.8 21.1 2.8c8.3 0 16.2-1.2 23.7-3.6 1.1-.3 2.1-.8 3.2-1.1l-9-17.6c-.6.3-1.2.4-1.9.4"/><path d="M20.4 91.7c3 0 5.4 2.4 5.4 5.4 0 1.4-.6 2.6-1.4 3.6l9.3 12.8c1-.7 2.2-1.1 3.5-1.1.5 0 1 .1 1.5.2l5.7-13.5c-.7-1.3-1.3-2.6-1.8-4-1.9-4.9-2.9-10.2-2.9-15.9s1-11 2.9-16 4.6-9.3 8.1-13.1c3.5-3.7 7.6-6.7 12.3-8.8 4.8-2.1 10-3.2 15.7-3.2 4.6 0 8.9.7 13 2.1s7.8 3.4 11.2 5.9c1.2.8 2.3 1.1 3.2.9s1.7-.8 2.4-2L126 20.1c.8-1.5.9-2.8.3-3.9s-1.4-2-2.6-2.7c-6.5-4.4-13.4-7.7-20.8-10S87.7 0 79.4 0C72.1 0 65 1 58.3 2.9c-2.8.8-5.5 1.8-8.2 2.8l11.4 19.8c1.2-.4 2.4-.5 3.6-.2 1.7.4 3.2 1.5 4.1 3 .3.4.5.9.6 1.3l28.3-5.5c-.1-.8 0-1.6.2-2.5.5-2.1 1.8-3.9 3.6-5s4-1.5 6.1-1 3.9 1.8 5 3.6 1.5 4 1 6.1c-.9 3.7-4.2 6.2-7.8 6.2-.6 0-1.2-.1-1.9-.2-1.1-.3-2-.7-2.9-1.4-1.4-1-2.3-2.4-2.8-4l-28.4 5.5c0 .6 0 1.3-.1 1.9-.7 3.1-3.5 5.1-6.5 5.1-.5 0-1-.1-1.5-.2-.9-.2-1.7-.6-2.4-1.1-1.1-.8-1.9-2-2.4-3.3l-48.2 9c-2.5 4.9-4.6 10-6.1 15.4-.9 3.4-1.6 6.8-2.1 10.3L18 92.2c.8-.3 1.6-.5 2.4-.5"/></svg>