<svg xmlns="http://www.w3.org/2000/svg" fill="#550fed" viewBox="0 0 100 29"><path d="M1.181 27.86h12.89c7.345 0 13.298-5.953 13.298-13.296S21.416 1.266 14.072 1.266H1.182z" opacity=".3"/><path d="M1.243 1.266h-.062V27.86h.062c7.344 0 13.298-5.953 13.298-13.297S8.587 1.265 1.243 1.265m40.15 8.19h-1.56a.073.073 0 0 0-.074.072v2.862c-.48-.61-1.314-.97-2.267-.97-2.341 0-3.914 2.016-3.914 3.899 0 1.916 1.436 3.898 3.839 3.898.932 0 1.813-.374 2.342-.984v.716a.073.073 0 0 0 .073.073h1.56a.073.073 0 0 0 .073-.073V9.527a.073.073 0 0 0-.073-.073m-3.78 8.146c-1.234 0-2.238-1.024-2.238-2.282 0-1.26 1.004-2.283 2.238-2.283 1.196 0 2.207 1.045 2.207 2.283S38.81 17.6 37.612 17.6m9.188-6.18c-2.649 0-4.078 2.008-4.078 3.898s1.43 3.898 4.079 3.898c1.304-.015 2.522-.654 3.432-1.798a.073.073 0 0 0-.022-.108l-1.32-.736a.073.073 0 0 0-.094.02c-.537.717-1.244 1.096-2.042 1.096-1.092 0-2.015-.767-2.14-1.76h5.95a.073.073 0 0 0 .074-.072v-.285c0-2.865-2.245-4.154-3.839-4.154m-.21 1.526c.963 0 1.722.578 2.046 1.55h-4.008c.262-.959 1.006-1.55 1.962-1.55m9.284 1.746-1.577-.3c-.604-.106-.885-.326-.885-.694 0-.547.65-.842 1.262-.842.64 0 1.28.267 1.904.793a.073.073 0 0 0 .103-.01l.885-1.095a.073.073 0 0 0-.014-.105c-.99-.704-1.89-1.019-2.923-1.019-1.918 0-2.923 1.23-2.923 2.444 0 1.188.749 1.788 2.67 2.141l.886.165c.587.108.885.367.885.769 0 .344-.487.843-1.367.843-.756 0-1.65-.42-2.227-1.042a.073.073 0 0 0-.105-.002l-1.065 1.08a.07.07 0 0 0-.021.054.07.07 0 0 0 .026.052c1.024.87 2.11 1.293 3.317 1.293 1.01 0 1.846-.292 2.415-.844a2.36 2.36 0 0 0 .733-1.674c0-1.102-.648-1.759-1.98-2.007m7.174-3.271c-.944 0-1.77.35-2.343.99v-.723a.073.073 0 0 0-.072-.072h-1.56a.07.07 0 0 0-.073.072v9.767c0 .04.032.072.073.072h1.56a.073.073 0 0 0 .072-.072v-3.207c.482.61 1.315.97 2.268.97 2.34 0 3.913-2.016 3.913-3.9 0-1.915-1.435-3.897-3.838-3.897m-.195 1.615c1.234 0 2.237 1.024 2.237 2.283S64.086 17.6 62.852 17.6c-1.197 0-2.207-1.045-2.207-2.282s1.01-2.283 2.207-2.283m8.985-1.616c-2.649 0-4.078 2.009-4.078 3.899s1.43 3.898 4.08 3.898c1.303-.015 2.522-.654 3.431-1.798a.073.073 0 0 0-.022-.108l-1.32-.736a.073.073 0 0 0-.093.02c-.538.717-1.244 1.096-2.043 1.096-1.092 0-2.015-.767-2.14-1.76h5.951a.073.073 0 0 0 .073-.072v-.285c0-2.865-2.245-4.154-3.839-4.154m-.21 1.526c.964 0 1.722.578 2.046 1.55h-4.008c.262-.959 1.007-1.55 1.962-1.55m12.572-1.33h-1.47a.073.073 0 0 0-.073.072v.686c-.531-.625-1.296-.953-2.222-.953-1.878 0-3.779 1.313-3.779 3.823 0 2.48 1.81 3.778 3.598 3.778.975 0 1.724-.314 2.403-1.014v.296c0 1.424-1.206 2.072-2.327 2.072-.677 0-1.343-.437-1.651-.87a.07.07 0 0 0-.048-.028.07.07 0 0 0-.055.013l-1.275.93a.07.07 0 0 0-.029.049.07.07 0 0 0 .016.055c.743.919 1.908 1.467 3.117 1.467 1.02 0 1.974-.358 2.684-1.009.775-.71 1.184-1.694 1.184-2.844v-6.45a.073.073 0 0 0-.073-.073m-3.63 5.79c-1.228 0-2.118-.922-2.118-2.192 0-1.2.95-2.178 2.118-2.178 1.15 0 2.087.984 2.087 2.193 0 1.241-.897 2.177-2.087 2.177m12.548-5.79h-1.56a.073.073 0 0 0-.073.072v.702c-.481-.61-1.314-.97-2.268-.97-2.34 0-3.913 2.016-3.913 3.899 0 1.916 1.436 3.898 3.838 3.898.932 0 1.813-.374 2.343-.984v.716a.073.073 0 0 0 .072.073h1.56a.073.073 0 0 0 .073-.073v-7.26a.073.073 0 0 0-.072-.073m-3.78 5.985c-1.235 0-2.238-1.024-2.238-2.282 0-1.26 1.003-2.283 2.237-2.283 1.197 0 2.208 1.045 2.208 2.283S90.533 17.6 89.336 17.6m9.475-5.944a1.67 1.67 0 0 0-.894-.236c-.572 0-1.084.307-1.383.816v-.549a.073.073 0 0 0-.073-.072h-1.47a.073.073 0 0 0-.073.072v7.261c0 .04.033.073.073.073h1.56a.073.073 0 0 0 .073-.073v-4.8c0-.664.519-1.023 1.008-1.023.134 0 .405.087.54.194a.07.07 0 0 0 .064.014.07.07 0 0 0 .05-.046l.555-1.545a.07.07 0 0 0-.03-.086"/></svg>