<svg xmlns="http://www.w3.org/2000/svg" viewBox="0 0 731 216"><path fill="currentColor" d="M560.5 91.4c-12.7 0-25.7 3.6-25.7 30.4 0 10.6 1.5 17.1 5 21.5 3.8 4.9 9.9 7.2 19.4 7.2 6.9-.1 13.8-.6 20.7-1.5l1-.2v-8.5H562c-11.1 0-14.8-2.9-14.8-11.7v-3.3H577c4.6 0 7.5-3.1 7.5-7.8v-3.4c-.2-15-8.4-22.7-24-22.7m11.9 24.8H547v-2.3c0-5.5 2-12.2 11.1-12.2h4.5c8.1 0 9.8 4.9 9.8 12.2zM461.9 91.4h-2.8c-17.1 0-24.7 9.3-24.7 30.3 0 17.2 4.2 28.8 24.7 28.8h2.8c16.8 0 24.6-9.4 24.6-29.5 0-20.8-7.3-29.6-24.6-29.6m12.2 34.2c0 10.6-3.4 15-12 15H459c-10.2 0-12-4.5-12-17.6v-3.9c0-13.8 2.8-17.6 12.7-17.6h1.8c9.3 0 12.7 2.6 12.7 17.6zM350.6 91.4c-12.7 0-25.7 3.6-25.7 30.4 0 10.6 1.5 17.1 4.9 21.5 3.7 4.9 9.9 7.2 19.4 7.2 6.9-.1 13.8-.6 20.7-1.5l1-.2v-8.5H352c-11.1 0-14.8-2.9-14.8-11.7v-3.3H367c4.6 0 7.5-3.1 7.5-7.8v-3.4c0-15-8.1-22.7-23.9-22.7m12 24.8h-25.3v-2.3c0-5.5 2-12.2 11.1-12.2h4.5c8.1 0 9.8 4.9 9.8 12.2zm-58.4-42v18.5H288c-11.1.2-22 3.1-22 29.1 0 26.5 10.2 28.5 24.7 28.5 8.2.1 16.4-.5 24.6-1.6l1-.2V74.2zm0 65.9h-13.1c-9.9 0-12.5-3.2-12.5-15.3v-6.7c0-11.1 3.6-14.8 13.5-14.8h12.2zm313.2-48.7c-6.3 0-12.5.4-18.7 1.3l-1 .2v9h20.6c7.5 0 10.2 2.6 10.2 9.8v2.8c-5.8-.8-11.7-1.2-17.6-1.3-9.3 0-21.6 2.1-21.6 19.7 0 16.4 10.1 17.7 23.3 17.7 8.8-.1 17.6-.8 26.4-2.1l1-.2.2-36.9c-.1-17.5-10.9-19.9-22.8-20m11.1 48.7H610c-5.9 0-8.1-2-8.1-7V131c0-5.2 2.8-7.5 8.8-7.5h17.9zm-224.3-5.3-17.4-41.9h-12.4l23.4 56.5h11.9l23-56.5h-12zm106.7-2.5v-30.1h17.2v-9.4H511V75h-11.4v17.7h-9.1v9.6h8.5v30.3c0 9 2.1 18.2 17.2 18.2 4.7-.1 9.4-.7 14-1.8l.8-.2v-8.5h-11.9c-6.4-.1-8.2-1.9-8.2-8m197.6-41c-6.5.1-13 .9-19.4 2.3-4.1-2.1-8.8-2.3-13.5-2.3-8 .2-15.9 1-23.8 2.3v55.6h12V102H675c8.1 0 10.6 2.6 10.6 11.7v35.6h12v-38.9c.1-2.8-.4-5.6-1.3-8.3h10.2c9.1 0 12 2.8 12 11.7v35.5h11.9V111c.3-19.7-14.7-19.7-22-19.7M108 0C48.4-.1.1 48.1 0 107.7s48.1 107.9 107.7 108 107.9-48.1 108-107.7v-.1C215.7 48.4 167.5.1 108 0m71.8 99.7h-41.3V175h-49c-26.5 0-50.4-16.1-50.4-50.4 0-25.5 13.3-50.4 50.4-50.4h11.4c2.9 8.4 5.1 17.1 6.4 25.9H90.2c-15.3 0-23.9 8.3-23.9 24.7 0 15.5 8.1 24.7 23.9 24.7H112V36h26.5v38.4h41.3z"/></svg>