<svg xmlns="http://www.w3.org/2000/svg" fill="currentColor" viewBox="0 0 828 244"><path d="M275.23 69.439V.003h-34.733v208.29h34.733v-104.14h34.733V69.439zM172.35 34.717v208.29h34.732v-243H172.35v34.714zm-68.15 0v34.715H34.735v34.714H104.2v104.14H34.735V243h104.2V0h-34.733v34.714zM34.733 138.87v-34.714H0v104.14h34.733v-69.429z"/><path fill-opacity=".6" d="M275.23 208.29h34.732v34.714H275.23zm172.35-104.14h-69.465V.01h-34.733v243h34.733V138.87h69.465v104.14h34.736V.01H447.58zm68.18-34.713h34.74v138.86h-34.74z"/><path fill-opacity=".6" d="M619.9 208.3h-69.46v34.714h104.19V69.444H619.9v138.86zm102.9-104.15h69.47V69.436H722.8V.007h-34.73v243h104.2v-34.714H722.8v-104.14zm69.47 0H827v104.14h-34.73z"/></svg>