<svg xmlns="http://www.w3.org/2000/svg" viewBox="0 0 1000 118.79"><path fill="#f05556" d="M0 6.337h80.547v19.48H22.2v25.977h47.246v19.163H22.2v27.088h58.347v19.165H0V6.34zm89.7 110.87h20.138V-.003L89.7 6.334v110.87zm111.18-32.946h-61.041c2.693 9.979 11.572 16.632 22.353 16.632 6.185 0 11.891-2.376 15.224-7.289h22.354c-6.022 15.207-20.295 25.187-37.893 25.187-23.784 0-43.125-17.423-43.125-41.182 0-23.918 18.392-41.181 41.063-41.181 19.66 0 41.224 14.413 41.224 44.824-.001.949-.159 1.901-.159 3.009m-21.722-14.413c-1.743-9.344-9.99-15.841-19.345-15.841s-17.123 6.179-19.817 15.841zm89.54-.635h20.453c-3.805-19.164-20.293-32.629-39.953-32.629-22.831 0-41.381 17.266-41.381 41.184 0 23.758 18.551 41.022 41.381 41.022 19.66 0 36.148-12.829 39.953-31.995h-20.453c-3.169 8.555-10.624 13.938-19.5 13.938-11.892 0-21.404-9.344-21.404-22.649 0-13.619 9.512-22.808 21.404-22.808 8.877-.001 16.331 5.383 19.5 13.937m46.729-54.168L295.61 21.38v75.395c0 12.195 8.563 20.433 23.146 20.433h19.665V99.309h-13.955c-6.182 0-9.039-2.852-9.039-8.079V55.275h22.993V38.169h-22.993zm588.9 0L884.51 21.38v75.395c0 12.195 8.563 20.433 23.145 20.433h19.668V99.309h-13.954c-6.185 0-9.041-2.852-9.041-8.079V55.275h22.995V38.169h-22.995zm-538.09 23.124h-20.138v79.038h20.138V75.39c0-10.77 9.512-22.016 25.685-19.48V36.744c-12.21-1.427-20.929 5.383-25.685 15.681zm68.235 80.621c-23.149 0-41.857-17.265-41.857-41.022 0-23.918 18.708-41.184 41.857-41.184s41.857 17.266 41.857 41.184c0 23.757-18.708 41.022-41.857 41.022m0-63.674c-12.206 0-21.88 9.188-21.88 22.808 0 13.306 9.674 22.652 21.88 22.652 12.21 0 21.88-9.347 21.88-22.652 0-13.62-9.67-22.808-21.88-22.808m70.999-7.13v-9.817h-20.135v79.038h20.135V69.371c0-9.186 7.134-16.471 16.491-16.471 9.67 0 16.488 6.969 16.488 17.262v47.045h20.138V68.58c0-18.531-10.628-32.152-29.492-32.152-10.149 0-18.869 4.432-23.625 11.558m61.466-32.625c0 7.128 5.871 12.987 12.848 12.987 7.134 0 12.995-5.859 12.995-12.987s-5.861-12.989-12.995-12.989c-6.976 0-12.848 5.861-12.848 12.989m2.858 101.85h20.13V38.174h-20.13zm89.937-47.994h20.452c-3.799-19.164-20.295-32.629-39.955-32.629-22.829 0-41.382 17.266-41.382 41.184 0 23.758 18.553 41.022 41.382 41.022 19.66 0 36.156-12.829 39.955-31.995h-20.452c-3.171 8.555-10.618 13.938-19.503 13.938-11.89 0-21.4-9.344-21.4-22.649 0-13.619 9.511-22.808 21.4-22.808 8.885-.001 16.332 5.383 19.503 13.937m110.19-67.633 57.08 115.63H803.85L792.596 93.61h-46.295l-10.942 23.604h-22.515zm14.582 75.079L769.13 44.351l-14.903 32.313h30.277zm67.437-38.49H831.81v79.038h20.131V75.394c0-10.77 9.511-22.016 25.687-19.48V36.748c-12.211-1.427-20.931 5.383-25.687 15.681zm100.18 20.751c0-4.754 5.07-7.288 10.625-7.288 9.355 0 16.325 5.387 17.596 13.621h18.388c-1.741-16.946-16.166-28.825-35.668-28.825-17.28 0-30.6 9.027-30.6 24.231 0 16.949 16.176 21.384 29.65 24.869 9.668 2.532 17.918 4.593 17.918 10.296 0 4.593-5.235 7.761-12.534 7.761-9.826 0-17.273-5.543-18.388-13.779h-18.389c1.742 16.946 16.646 28.984 36.776 28.984 18.238 0 32.506-9.662 32.506-24.868 0-16.472-16.166-20.907-29.648-24.391-9.827-2.536-18.232-4.752-18.232-10.611"/></svg>