<svg xmlns="http://www.w3.org/2000/svg" fill="currentColor" viewBox="0 0 143 24"><path d="M28.561 19.169 26.879 24h-4.275l8.708-24h4.717l8.665 24h-4.247l-1.682-4.831zm8.907-3.691L33.663 4.647l-3.805 10.83zM68.565 12c0 6.684-4.874 12-11.473 12h-9.406V0h9.406c6.599 0 11.473 5.273 11.473 12m-3.805 0c0-4.76-3.121-8.223-7.668-8.223H51.62v16.46h5.472c4.547 0 7.668-3.505 7.668-8.237m15.378 3.249h-4.66v8.75h-3.934V0h9.592c1.012 0 2.01.2 2.95.585s1.781.955 2.508 1.667a7.65 7.65 0 0 1 1.668 2.509 7.79 7.79 0 0 1 .584 2.95c0 3.078-1.953 5.829-4.746 6.969L89.544 24h-4.318l-5.06-8.75zm-4.66-3.52h5.658c2.08 0 3.762-1.782 3.762-4.02s-1.682-4.018-3.762-4.018h-5.658zm29.612 7.44L103.408 24h-4.275l8.693-24h4.717l8.666 24h-4.248l-1.681-4.831h-10.205zm8.907-3.691-3.805-10.831-3.805 10.83zM142.52 0v24h-3.079L128.14 7.71V24h-3.934V0h3.093l11.287 16.29V0zM96.242 0h-3.99v24h3.99zM19.995 24h-6V0h6v4.005H18v15.99h1.995zM6 10.005V0H0v4.005h1.995v15.99H0V24h6v-9.99h6v-4.005z"/></svg>