<svg xmlns="http://www.w3.org/2000/svg" fill="#d31245" viewBox="0 0 1000 349.65"><path d="M957.395 116.433c-17.516-.03-33.406 14.097-53.172 30.546-18.139 15.07-55.245 53.173-89.098 74.877 9.433-14.822 32.173-46.85 35.594-61.88 3.596-15.754-7.95-21.87-23.84-12.126-17.31 10.676-33.82 61.982-58.272 61.982-4.457 0-7.566-2.176-7.525-7.151.104-15.03 23.373-44.985 65.144-61.465 6.478-2.591 8.966-6.768 8.997-10.365 0-1.14-.186-8.748-13.018-8.748-41.253 0-96.934 48.145-104.739 85.055-8.032 8.085-22.492 20.067-40.817 27.882 20.689-29.302 38.496-52.861 47.834-77.323 10.78-28.504-4.56-32.235-20.315-23.901-15.34 8.105-26.12 30.607-30.68 39.18-4.457 8.499-8.292 19.382-21.767 30.213s-27.467 9.018-17.6-12.127c8.842-18.885 28.711-38.692 45.814-47.814 4.042-2.176 7.597-3.462 7.463-8.914-.208-8.654-10.22-14.656-24.493-8.499-19.383 8.396-28.69 13.993-45.119 13.993-13.039 0-19.797-3.524-25.363-5.836-7.463-3.171-12.956-2.073-15.858-1.14-2.612.892-6.738 3.42-10.19 7.204-2.736 3.006-5.047 7.93-5.596 11.09-3.835 23.114-24.068 64.574-38.931 64.574-5.13 0-10.78-1.45-9.329-13.267 2.384-19.34 25.705-45.481 31.095-50.685 5.39-5.244 15.548-8.81 16.273-14.614.622-4.872-2.342-10.313-11.92-10.313-31.437 0-73.446 43.574-77.633 82.712-4.872 4.56-10.738 9.018-17.445 9.018-14.51 0-18.636-13.578-17.6-24.358C473.475 159.78 545.906 82.965 548.093 28.29c.518-13.06-5.846-19.59-16.543-19.59-26.949 0-64.719 39.388-88.206 69.757-28.897 37.397-46.684 82.557-52.965 116.793-21.145 18.346-29.727 19.569-38.93 19.569-12.791 0-17.259-9.256-16.854-16.532 35.655-32.401 97.638-109.6 98.882-147.753.373-11.298-6.012-16.626-17.445-16.626-24.305 0-58.728 25.654-83.48 59.433-24.72 33.79-40.754 73.53-45.294 109.558-18.502 16.626-32.34 20.005-43.74 20.005-6.893 0-11.951-4.851-13.164-6.883 16.377-9.453 53.69-33.168 53.69-68.512 0-17.559-11.847-25.395-23.632-25.395-29.975 0-77.115 37.356-76.804 88.911 0 .913.145 4.084.31 5.235-13.578 4.664-22.927 9.432-20.77 19.196 1.969 8.851 12.955 8.395 27.26 3.348 3.295 6.115 17.309 16.2 37.106 16.2 26.804 0 47.264-12.718 63.434-26.534 6.789 15.91 23.528 24.254 41.045 24.254 21.248 0 42.29-14.408 58.873-27.467 1.928 12.2 14.335 31.198 35.8 31.198 19.59 0 34.558-11.401 46.384-23.736 3.11 12.438 14.511 22.285 29.375 22.285 49.576 0 77.374-70.171 83.78-95.358.83-3.213 3.897-3.939 6.012-3.182 9.225 3.213 13.744 4.81 25.394 3.483-18.864 14.822-35.49 40.112-35.49 58.593 0 18.45 15.993 27.022 27.675 27.022 11.712 0 27.198-7.567 37.386-17.103-2.695 5.432-6.322 13.734-12.127 19.59-10.676 2.933-41.978 14.231-61.879 26.327-18.864 11.505-37.106 29.79-37.106 50.83 0 11.257 9.224 24.462 30.918 24.462 36.464 0 61.983-23.84 96.395-86.444 28.504-11.951 45.606-23.114 56.8-32.598 4.913 8.561 14.366 12.541 23.84 12.541 13.992 0 22.388-4.042 33.686-12.158-1.555 3.835-4.043 9.598-7.878 14.718-20.377 8.479-44.849 19.694-57.38 27.26-33.427 20.15-40.838 38.216-40.838 52.447 0 8.707 7.462 23.84 29.986 23.84 48.715 0 78.877-60.584 98.53-94.84 14.407-7.639 34.991-21.808 56.146-38.04-.725 2.592-1.067 5.287-1.067 8.344 0 15.206 13.785 29.51 36.381 29.51 44.642 0 58.531-32.9 57.982-68.41-.207-11.608-1.918-20.854-2.073-24.98-.415-10.841 3.192-16.687 13.06-16.687 9.95 0 16.687-1.762 16.687-10.261 0-11.764-8.395-17.102-19.797-17.102m-449.84-63.02c1.274 0 1.803 1.14 1.761 2.903-.383 13.992-36.38 70.533-69.684 103.442 20.046-58.925 60.014-106.345 67.891-106.345M222.932 195.622c1.45-25.114 21.351-44.466 29.208-44.466 2.902 0 4.25 1.659 4.25 5.11 0 8.955-12.024 27.675-33.407 39.356M392.14 74.559c1.503 0 2.146 1.171 2.094 3.078-.26 10.344-26.172 57.837-59.433 90.746 17.475-53.38 45.917-93.803 57.318-93.803m181.979 243.162c-2.55 0-3.835-1.658-3.835-4.104 0-15.268 33.893-33.313 51.67-39.833-7.67 12.417-35.822 43.948-47.866 43.948m135.677.829c-2.487 0-3.42-1.493-3.42-3.939 0-13.474 30.722-34.35 48.477-40.859-9.225 15.963-34.878 44.777-45.088 44.777m185.171-97.016c-2.135 0-5.39-.518-5.39-7.701 0-5.224-2.487-11.008-11.588-11.008a24.5 24.5 0 0 0-4.125.363c19.486-15.444 34.723-32.443 48.923-43.948-2.902 35.138-11.298 62.294-27.882 62.294"/><path d="M877.761 109.924c-.653 6.167-7.525 8.935-8.126 14.449-.342 3.213 1.928 5.338 5.929 5.286 10.22-.104 37.625-15.92 40.009-40.527 1.202-12.407-6.551-23.176-20.077-23.176-13.682 0-26.058 12.832-27.209 23.611-1.109 10.542 10.106 14.356 9.474 20.357M165.51 283.455c-8.779-.456-12.894-10.935-12.894-23.632 0-13.962 9.018-44.207 12.594-58.521 3.628-14.438 5.182-37.79-7.878-51.182 49.649-19.974 123.137-88 132.569-102.852 9.432-14.874 11.298-33.79-1.762-43.243-12.957-9.453-34.205 2.881-46.746 20.937-34.516 49.773-55.35 74.069-78.878 94.53-18.346 15.961-27.26 16.22-36.07 17.443 0 0 33.893-55.483 46.539-72.14 15.184-19.922-3.525-27.364-21.663-14.78a643 643 0 0 1-67.103 40.32c-61.88 31.924-76.774 46.642-76.774 65.796 0 8.5 5.908 19.196 18.346 19.196 24.254 0 48.239-43.346 59.982-54.136 4.561-4.25 15.164-13.475 19.28-13.475 1.347 0 2.28.83 2.28 3.42 0 8.293-16.097 31.821-41.046 58.77C30.091 208.982.468 224.737.468 249.716c0 16.274 12.23 25.084 25.456 25.084 27.882 0 46.539-37.21 57.692-55.66 4.456-7.359 29.053-53.203 34.235-63.123 5.39 2.871 8.707 8.852 6.945 21-3.317 21.87-22.803 48.363-22.803 85.304 0 30.162 27.882 39.625 39.076 39.646 10.344 0 24.026-3.99 27.426-14.345.414-1.555-.104-4.177-2.861-4.354m824.204-171.333c5.804 0 9.536 3.731 9.536 9.567 0 5.804-3.732 9.536-9.536 9.536-5.856 0-9.567-3.732-9.567-9.536 0-5.867 3.69-9.619 9.556-9.619m0 16.791c4.406 0 7.194-2.83 7.194-7.255s-2.799-7.214-7.194-7.214c-4.436 0-7.224 2.798-7.224 7.193s2.799 7.256 7.193 7.256m.622-12.127c1.482 0 3.151.725 3.151 2.881 0 1.43-.933 2.28-1.97 2.695.664.933 1.183 2.26 1.97 2.26h.55c.103.103.207.31.207.725 0 .664-.487 1.14-1.451 1.14-1.866 0-2.073-2.218-3.317-3.835h-1.11v3.628c-.206.145-.725.207-1.14.207-.621 0-1.14-.103-1.14-1.036v-8.54c.208-.105.623-.146 1.12-.146h3.11zm-1.938 1.762v2.384h1.42c.995 0 1.555-.467 1.555-1.244 0-.726-.518-1.14-1.348-1.14z"/></svg>