<svg xmlns="http://www.w3.org/2000/svg" viewBox="-0.818 -0.818 98.098 28.885"><path fill="#0000a0" d="M38.396.05c-.451 0-.651.268-.818.652-10.528 24.18-11.412 26.09-11.412 26.09h5.966l1.241-3.033h8.99l1.245 3.034h7.017s-.6-1.242-11.412-26.091c-.167-.384-.367-.651-.818-.651M35.27 19.133l2.59-6.33 2.6 6.33zm32.928-4.488c2.05-1.219 3.604-3.347 3.604-6.4 0-2.396-.963-4.372-2.637-5.706-1.697-1.358-3.66-2.092-7.672-2.092h-8.585v26.345h6.343v-9.807h1.967c2.14 0 3.218.808 4.116 2.946.758 1.81 1.292 3.957 1.99 6.861h7.073a301 301 0 0 0-2.26-6.505c-1.032-2.881-2.283-4.654-3.939-5.642m-4.055-3.232c-.767.586-1.758.77-3.539.77h-1.353s-.014-7.022 0-7.022h1.353c1.86 0 2.786.203 3.535.767.855.646 1.236 1.616 1.236 2.738 0 1.223-.427 2.123-1.232 2.747m-52.207.198L1.162.91C.837.591.512.364 0 .364v26.428h5.538V14.155l6.399 6.354 6.403-6.354v12.637h5.538V.364c-.511 0-.837.227-1.162.545zm82.21 2.036c-2.827-2.668-7.956-3.125-9.984-4.695-.795-.614-1.079-1.52-.818-2.383.32-1.07 1.395-1.773 2.971-1.773 2.172 0 4.12.984 5.469 2.577l3.622-3.763C93.272 1.357 89.863 0 86.273 0c-4.185 0-7.342 2.008-8.751 5.212-1.093 2.489-.716 5.083.628 6.949 2.6 3.61 8.086 3.721 10.463 5.572.846.66 1.32 1.727.814 2.877-.438 1.006-1.54 1.69-3.344 1.736-2.502.06-4.734-1.104-6.375-3.14l-3.627 3.768c2.4 2.886 5.97 4.275 10.286 4.275 4.194 0 7.877-1.62 9.379-5.074 1.316-3.02.842-6.228-1.6-8.528"/></svg>