<svg xmlns="http://www.w3.org/2000/svg" viewBox="0 0 384 59"><path fill="currentColor" d="m382.5 51.7-15.3-27.6 13.7-17h-13.1s-12.3 16.2-14.1 19.1c.1-3.3.2-19.1.2-19.1h-11v44.6h11V38.6l6.5-7 9.7 20.1h13.1-.7zM336.1 41l-10.6-5.6c-2.5 4.2-4.1 7.3-8.1 7.3-5.4 0-9-6.4-9-13.2 0-7.1 3.7-13.2 8.9-13.2 4.1 0 5.7 3.6 7.3 7.7l11.4-4.4c-3.1-8.5-7.5-13.2-18.6-13.2-12.1 0-20.7 8.7-20.7 23.1 0 13.2 7.2 23.1 20.6 23.1 10.7-.1 15.8-5.7 18.8-11.6m-41.8 11.1-16.5-45h-12.7l-16.5 45h12.5l2.9-8.5h14.7l2.9 8.5h12.7zm-17.7-17h-10.3s4.5-15.8 5.1-18.8c.6 3 5.1 18.8 5.1 18.8m-32.1 2.2c0-5-2.4-8.2-6.4-9.9 3-1.7 5.4-3.9 5.4-8.7 0-7.5-4.6-11.6-15.7-11.6H207v44.6h21c11.3 0 16.4-5.3 16.4-14.4m-11.5-16.6c0 2.1-1.4 4.2-4.9 4.2h-9.9V16h9.9c3.9 0 4.9 2.7 4.9 4.7m1 17.5c0 2.6-1.9 5.4-5 5.4h-10.8V33H229c2.9 0 4.9 2.6 4.9 5.2M201.8 7.1h-13.1s-9.2 18-10.1 20.6c-.8-2.6-10-20.6-10-20.6h-13.2l17.7 31.2v13.4h11V38.1l17.7-31zm-41.5 45-16.5-45h-12.7l-16.5 45h12.5l2.9-8.5h14.7l2.9 8.5h12.7zm-17.8-17h-10.2s4.5-15.8 5.1-18.8c.5 3 5 18.8 5.1 18.8m-26.8-13.2c0-10.8-7-14.9-17.6-14.9H78.8v44.6h11V37.2h7.4c10.9 0 18.5-4 18.5-15.4m-12.2.5c0 3.4-2.1 6-6.1 6h-8V16.4h8.2c3.9 0 5.9 3 5.9 5.9m-89.9 4.9C6.1 27.2 0 21.1 0 13.6S6.1 0 13.6 0s13.6 6.1 13.6 13.6c.1 7.4-6 13.6-13.6 13.6zm0-24.6c-6 0-11 4.9-11 11 0 6 4.9 11 11 11s11-4.9 11-11-4.9-11-11-11zm0 56.4C6.1 59 0 52.9 0 45.4s6.1-13.6 13.6-13.6 13.7 6 13.7 13.5c0 7.6-6.1 13.7-13.7 13.7zm0-24.6c-6 0-11 4.9-11 11 0 6 4.9 11 11 11s11-4.9 11-11-4.9-11-11-11zm31.9-7.2c-7.5 0-13.6-6.1-13.6-13.6S38 0 45.5 0s13.6 6.1 13.6 13.6c0 7.4-6.1 13.6-13.6 13.6zm0 31.8c-7.5 0-13.6-6.1-13.6-13.6S38 31.8 45.5 31.8s13.6 6.1 13.6 13.6S53 59 45.5 59zm0-24.6c-6 0-11 4.9-11 11 0 6 4.9 11 11 11 6 0 11-4.9 11-11-.1-6.1-5-11-11-11z"/></svg>