<svg xmlns="http://www.w3.org/2000/svg" viewBox="0 0 152 28"><path fill="#212225" d="M3.99 3.168c.074-.267.666-2.408.442-3.166h7.148c1.434 0 2.474 1.372 2.092 2.762L11.968 8.94a3.37 3.37 0 0 1-3.238 2.447H1.713zM30.68 0h-7.52c.177.6-.147 2.069-.327 2.79l-2.236 8.057c-.868 2.932-2.09 5.57-5.88 5.572H8.772a7.33 7.33 0 0 0-7.054 5.385L0 28h9.933l1.664-6.01c.867-2.931 2.093-5.569 5.884-5.571h5.967a7.3 7.3 0 0 0 7.027-5.365l2.295-8.287C33.157 1.377 32.115 0 30.68 0m39.985 8.634c-.057-.061-.072-.072-.08-.087-.977-1.857-2.563-2.684-4.603-2.66-1.855.024-3.454.74-4.703 2.106-2.119 2.314-2.93 5.05-2.478 8.088.382 2.566 2.497 4.508 5.077 4.477 2.115-.026 3.804-.944 5.154-2.537l.207-.245-.353 2.388h4.157l2.131-13.878h-4.156zm-.704 4.334c-.197 1.858-1.514 3.373-3.256 3.725-.257.052-.52.07-.782.103-2.026-.015-3.333-1.634-2.952-3.673.35-1.875 1.872-3.297 3.766-3.443 2.04-.159 3.433 1.32 3.224 3.288m64.284-6.705c-.708 4.613-1.416 9.265-2.128 13.897h-4.153l.3-2.04-.04-.02-.174.232c-1.357 1.875-3.857 2.7-5.993 1.952-1.507-.529-2.312-1.668-2.633-3.194-.252-1.194-.116-2.381.066-3.566q.557-3.622 1.118-7.245l.004-.004h4.153c-.08.523-.16 1.031-.237 1.54-.312 2.038-.63 4.075-.931 6.115-.08.536-.067 1.076.18 1.582.372.764 1.053 1.01 1.848 1.043 1.574.065 2.952-1.103 3.267-2.655.193-.948.312-1.913.463-2.871.239-1.514.736-4.766.736-4.766 1.292.007 4.155 0 4.155 0zM114.342.735h4.158c-.998 6.488-1.993 12.959-2.99 19.43h-4.157zm33.507 5.526-.384 2.418c-.06-.095-.09-.137-.113-.182-.68-1.326-1.758-2.153-3.198-2.466-1.866-.407-3.584.016-5.117 1.126-1.783 1.29-2.78 3.098-3.241 5.223-.335 1.542-.38 3.084.195 4.585.65 1.693 1.866 2.75 3.656 3.05 2.259.38 4.173-.373 5.804-1.93.226-.216.429-.458.642-.687q-.064.58-.141 1.151a19 19 0 0 1-.311 1.749c-.254 1.086-.966 1.834-1.988 2.245-1.593.639-3.163.5-4.654-.318-.515-.284-.952-.712-1.455-1.098l-.021.018-2.511 3.034c1.333 1.258 3.396 2.165 5.294 2.3 2.018.144 3.936-.206 5.712-1.197 2.024-1.13 3.367-2.82 3.812-5.113q.156-.807.29-1.62c.252-1.5.462-3.01.697-4.513q.412-2.637.814-5.275c.125-.82.37-2.5.37-2.5s-2.938.01-4.151 0zm-5.064 10.24c-1.501.004-2.59-.808-2.92-2.211-.198-.852-.031-1.67.33-2.45a4.05 4.05 0 0 1 4.346-2.278c1.435.252 2.387 1.478 2.326 2.994-.086 2.168-1.918 3.94-4.082 3.945M106.13 6.008c-2.115-.407-3.972.196-5.584 1.606l-.958.838.323-2.182-4.166-.008c-.28 1.84-2.97 19.426-3.029 19.843h4.148l1.262-8.278c.027.006.04.005.043.01q.055.095.107.19c.716 1.298 1.788 2.138 3.24 2.411 2.092.393 3.95-.16 5.552-1.55 1.373-1.192 2.206-2.727 2.659-4.468.428-1.647.567-3.317.064-4.974-.56-1.841-1.743-3.068-3.66-3.438zm-.291 6.977c-.213 1.862-1.512 3.352-3.242 3.707-.267.055-.54.072-.81.107-2.013-.026-3.315-1.643-2.937-3.663.353-1.882 1.859-3.3 3.757-3.454 2.063-.168 3.455 1.34 3.232 3.303M53.167 6.008c-2.115-.408-3.972.195-5.584 1.606l-.958.837.322-2.182-4.165-.007c-.28 1.84-2.97 19.426-3.029 19.843H43.9l1.263-8.279c.026.007.04.006.043.012q.055.093.107.19c.715 1.297 1.788 2.137 3.24 2.41 2.092.393 3.95-.16 5.552-1.55 1.373-1.193 2.206-2.727 2.659-4.469.428-1.646.567-3.316.064-4.973-.559-1.841-1.743-3.068-3.66-3.438zm-.292 6.976c-.212 1.863-1.512 3.353-3.242 3.708-.266.054-.54.072-.808.106-2.014-.025-3.316-1.642-2.938-3.663.352-1.881 1.859-3.299 3.757-3.453 2.063-.168 3.455 1.34 3.231 3.302m40.551-6.7-8.982 19.822h-4.048l1.177-2.775c1.1-2.589.555-3.165-.272-3.165h-2.304c-.537 0-.98-.427-1.002-.966l-.553-12.915h4.18l.486 11.678c.084 1.247 1.23 1.303 1.812.003l5.225-11.681z"/></svg>