<svg xmlns="http://www.w3.org/2000/svg" viewBox="0 0 562 73"><path fill="#d71e28" d="M0 0h561.122v72.288H0z"/><path fill="#fff" d="M124.307 44.349h5.322v17.669H85.198v-6.431h6.285V16.7H81.287L68.349 62.018H58.073L47.575 24.462 36.782 62.018H26.506L13.494 16.7H7.58v-6.431h24.101V16.7h-6.949l8.649 31.198 10.35-37.629h10.645l10.573 37.704L73.451 16.7h-7.245v-6.431h62.685V27.05h-5.323l-.518-1.996c-1.625-6.21-3.326-8.354-8.279-8.354h-12.274v15.599h14.861a7.363 7.363 0 0 1 .813 3.549 7.757 7.757 0 0 1-.813 3.695h-14.861v16.043h12.79c4.806 0 6.95-2.071 8.429-8.65zm46.719 2.588c-1.479 6.578-3.549 8.65-8.429 8.65h-10.276V16.7h7.023v-6.431h-24.322V16.7h6.283v38.887h-6.283v6.431h41.918V44.349h-5.323zm46.57 0c-1.478 6.578-3.548 8.65-8.429 8.65h-10.274V16.7h7.022v-6.431h-24.322V16.7h6.283v38.887h-6.284v6.431h41.918V44.349h-5.323zm38.956-15.23-9.389-2.143c-5.47-1.257-7.762-3.401-7.762-7.023 0-4.363 3.474-7.097 10.276-7.097 6.801 0 10.793 2.44 12.345 8.206l.667 2.514h5.322v-12.79a41.387 41.387 0 0 0-18.778-4.584c-12.642 0-20.773 6.061-20.773 15.82 0 7.541 4.731 13.085 13.824 15.081l9.389 2.07c5.988 1.331 8.206 3.697 8.206 7.616 0 4.805-3.623 7.465-10.868 7.465-8.206 0-12.42-3.252-14.268-9.462l-.961-3.179h-5.323v14.491a46.022 46.022 0 0 0 21.808 4.805c12.42 0 20.552-6.21 20.552-15.895.001-8.132-4.952-13.75-14.267-15.895M327.811 16.7c4.953 0 6.654 2.143 8.28 8.354l.518 1.996h5.323V10.269h-44.579V16.7h6.284v38.887h-6.284v6.431h24.693v-6.431h-7.393V40.505h15.229a7.762 7.762 0 0 0 .814-3.696 7.367 7.367 0 0 0-.814-3.549h-15.229V16.7zm112.66 39.477a7.242 7.242 0 0 1 0 6.064c-1.912.247-3.838.37-5.766.369-7.17 0-10.646-2.957-11.459-9.833l-.296-2.587c-.887-7.466-3.327-10.35-11.459-10.35h-4.066v15.748h7.024v6.43h-46.498v-6.431h6.062l-3.401-9.242h-19.221l-3.401 9.242h6.21v6.431h-19.591v-6.431h5.175l18.112-45.319h9.833l18.482 45.319h10.197V16.7h-6.284v-6.431h29.721c10.573 0 17.448 5.249 17.448 13.677 0 8.354-6.875 12.79-13.529 13.085v.222c6.727.517 9.463 4.287 10.128 10.129l.296 2.734c.443 4.288 1.33 6.21 4.731 6.21a9.187 9.187 0 0 0 1.552-.149m-72.224-16.116-7.244-19.591-7.246 19.591zm57.882-15.08c0-5.398-3.325-8.281-9.98-8.281h-8.724v16.633h8.723c6.58 0 9.98-3.03 9.98-8.352zm44.15 13.454a7.272 7.272 0 0 0 .813 3.623h8.797v13.086a22.63 22.63 0 0 1-8.723 1.699c-10.646 0-16.191-7.614-16.191-20.773 0-13.159 5.545-20.774 15.599-20.774a12.83 12.83 0 0 1 12.938 9.093l.812 2.07h5.323V13.225a43.254 43.254 0 0 0-19.591-4.583c-16.262 0-27.206 10.867-27.206 27.502 0 16.707 10.646 27.354 27.206 27.354a46.578 46.578 0 0 0 20.7-5.471V34.961h-19.665a6.882 6.882 0 0 0-.813 3.474zm82.295-2.365c-.045 15.155-12.345 27.417-27.5 27.417-15.157 0-27.455-12.262-27.502-27.417.047-15.157 12.345-27.418 27.502-27.418 15.155 0 27.455 12.261 27.5 27.418m-12.123 0c0-13.086-5.397-20.701-15.379-20.701-9.979 0-15.376 7.616-15.376 20.701 0 13.158 5.323 20.699 15.376 20.699 10.055 0 15.378-7.541 15.378-20.699z"/></svg>