<svg xmlns="http://www.w3.org/2000/svg" viewBox="0 0 198 46"><path fill="currentColor" d="M169.72 19.639c1.277 0 2.176.413 2.72 1.264.473.739 1.244 1.233 2.12 1.233h.3c1.924 0 3.13-2.147 2.064-3.748-1.44-2.163-4.04-3.405-7.406-3.405-5.06 0-8.638 3.71-8.638 8.908 0 5.398 3.442 8.94 8.773 8.94 3.07 0 5.6-1.226 7.087-3.253 1.186-1.618.045-3.9-1.987-3.9h-.196c-.87 0-1.633.49-2.11 1.219-.553.848-1.493 1.278-2.795 1.278-2.227 0-3.542-1.585-3.542-4.284 0-2.6 1.417-4.252 3.61-4.252m-35.97-4.717c-2.373 0-4.553.966-5.596 2.425a.039.039 0 0 1-.033.017.04.04 0 0 1-.04-.04V9.357a2.444 2.444 0 0 0-2.43-2.432h-2.725a.04.04 0 0 0-.04.04v25.36c0 .022.018.04.04.04h4.816a.04.04 0 0 0 .04-.035l.252-2.01a.04.04 0 0 1 .04-.035.04.04 0 0 1 .033.018c.937 1.499 2.926 2.5 5.238 2.5 4.791 0 8.131-3.474 8.131-8.704 0-5.5-3.003-9.177-7.726-9.177m-1.518 13.125c-2.43 0-4.117-1.687-4.117-4.217 0-2.531 1.687-4.218 4.117-4.218 2.463 0 4.015 1.72 4.015 4.218 0 2.496-1.553 4.217-4.016 4.217m-13.59-13.043h-3.907l-5.11-.081c-4.758 0-8.098 3.576-8.098 8.705 0 5.06 3.273 8.536 7.996 8.536 2.144 0 3.998-.741 5.025-1.91a.04.04 0 0 1 .03-.014.04.04 0 0 1 .04.04v2.086c0 2.396-1.586 3.88-4.082 3.88-2.025 0-3.366-.866-3.723-2.37a.831.831 0 0 0-.81-.633h-3.574a.842.842 0 0 0-.824.993c.83 4.202 4.17 6.734 8.964 6.734 5.77 0 9.245-3.644 9.245-9.683l-.017-15.128c0-.638-.518-1.155-1.156-1.155m-7.97 12.639c-2.295 0-3.915-1.72-3.915-4.15 0-2.396 1.586-4.05 3.88-4.05 2.396 0 3.982 1.587 3.982 4.05 0 2.497-1.586 4.15-3.948 4.15m80.181-12.147a.039.039 0 0 0-.03.014l-5.384 5.98a.04.04 0 0 1-.03.015.04.04 0 0 1-.04-.04V9.358a2.444 2.444 0 0 0-2.432-2.432h-2.724a.04.04 0 0 0-.04.04v25.36c0 .023.018.04.04.04h5.115a.04.04 0 0 0 .04-.04v-3.45c0-.465.18-.915.503-1.253l1.452-1.527a.041.041 0 0 1 .03-.013.04.04 0 0 1 .034.02l3.74 6.245c.007.012.021.02.035.02h5.912a.04.04 0 0 0 .04-.04.044.044 0 0 0-.007-.022l-6.088-10.102a.04.04 0 0 1 .006-.05l6.257-6.59a.04.04 0 0 0-.029-.068zm-39.56-.54c-4.807 0-7.94 2.479-7.963 6.268 0 .023.02.042.041.042h3.594a.79.79 0 0 0 .756-.61c.286-1.132 1.422-1.752 3.302-1.752 1.856 0 2.868.877 2.868 2.53v.233a.04.04 0 0 1-.038.04l-4.686.368c-4.048.304-6.242 2.227-6.242 5.33 0 3.308 2.227 5.4 5.803 5.4 2.453 0 4.621-1.047 5.244-2.524a.04.04 0 0 1 .037-.026.04.04 0 0 1 .04.034l.31 2.043a.04.04 0 0 0 .04.034h4.513a.04.04 0 0 0 .04-.04v-9.812c0-4.825-2.767-7.558-7.659-7.558m2.632 11.1c0 1.924-1.384 2.903-3.375 2.903-1.585 0-2.328-.574-2.328-1.788 0-1.08.81-1.586 3.071-1.79l2.588-.231h.004a.04.04 0 0 1 .04.04zm-60.767-11.1c-2.156 0-4.05.815-5.108 2.22a.04.04 0 0 1-.032.017.04.04 0 0 1-.039-.032l-.314-1.632a.04.04 0 0 0-.04-.033h-4.818a.04.04 0 0 0-.04.04v16.79c0 .022.017.04.04.04h5.115a.04.04 0 0 0 .04-.04v-9.204c0-2.092 1.316-3.442 3.374-3.442 1.788 0 2.97 1.384 2.97 3.51v9.136c0 .022.017.04.04.04h3.52c.904 0 1.635-.731 1.635-1.634V21.94c0-4.42-2.328-6.984-6.343-6.984m-17.024.54c-.903 0-1.634.732-1.634 1.635v15.195l.04.04h5.115l.04-.04v-16.83zm.835-8.535c-1.607.05-2.947 1.475-2.87 3.08a2.963 2.963 0 0 0 2.965 2.823c1.62 0 2.935-1.316 2.935-2.97v-.018a2.931 2.931 0 0 0-3.03-2.915m-3.979 8.535H69.06c-.899 0-1.69.592-1.943 1.453l-1.192 4.047c-.16.572-.888 3.245-1.14 4.566-.01.045-.072.044-.08 0-.228-1.237-.95-4.028-1.108-4.566l-1.24-4.302a1.663 1.663 0 0 0-1.593-1.198h-2.866c-.725 0-1.365.47-1.582 1.163l-1.357 4.337c-.708 2.254-.894 2.94-1.174 4.554-.008.045-.072.045-.08 0a44.24 44.24 0 0 0-1.006-4.554l-1.134-4.017a2.041 2.041 0 0 0-1.96-1.483h-3.869a.04.04 0 0 0-.038.053l5.406 16.789a.04.04 0 0 0 .038.028h5.002a.04.04 0 0 0 .04-.03l1.61-5.233c.977-3.208 1.32-4.59 1.474-5.35.01-.042.071-.042.08.002.147.85.58 2.726 1.347 5.246l1.611 5.336a.04.04 0 0 0 .04.029h4.765a.04.04 0 0 0 .038-.027l5.876-16.79a.04.04 0 0 0-.038-.053m-43.546 20.48a1.192 1.192 0 0 0-1.53-.374c-7.39 3.94-14.756 3.955-22.137-.045a1.191 1.191 0 0 0-1.55.387l-2.34 3.504a1.187 1.187 0 0 0 .338 1.66c9.288 5.998 22.173 5.017 29.32-.092a1.186 1.186 0 0 0 .27-1.632zM32.813.01h-.67c-4.61-.002-10.62-.026-15.227.01A17.305 17.305 0 0 0 8.27 2.407a16.848 16.848 0 0 0-5.68 5.47 16.355 16.355 0 0 0-2.02 4.622c-2.402 9.143 3.005 18.477 12.086 20.778 6.888 1.746 14.192-1.01 18.164-6.856 1.835-2.701 2.863-5.74 2.987-8.828V1.003a1 1 0 0 0-.994-.993M18.736 27.3a9.01 9.01 0 0 1-1.982.103 8.977 8.977 0 0 1-1.984-.14 9.64 9.64 0 0 1-8.112-7.536 10.626 10.626 0 0 1-.403-2.891c0-1.951.555-3.862 1.6-5.51.18-.286.44-.5.733-.634 1.75-1.68 4.42-2.503 7.43-2.503h1.674c3.058 0 5.797.85 7.573 2.586.267.14.5.344.666.612.16.259.306.527.443.8.415.707.71 1.51.863 2.409a10.303 10.303 0 0 1 .039 4.375 9.644 9.644 0 0 1-8.54 8.33"/></svg>