<svg xmlns="http://www.w3.org/2000/svg" fill-rule="evenodd" font-size="13" font-weight="500" viewBox="0 0 625 420"><g fill="none" stroke="#e5e7eb"><path fill="#fff" d="M169.5 16v388c0 8.555-6.945 15.5-15.5 15.5H16C7.445 419.5.5 412.555.5 404V16C.5 7.445 7.445.5 16 .5h138c8.555 0 15.5 6.945 15.5 15.5zm227 0v388c0 8.555-6.945 15.5-15.5 15.5H243c-8.555 0-15.5-6.945-15.5-15.5V16c0-8.555 6.945-15.5 15.5-15.5h138c8.555 0 15.5 6.945 15.5 15.5zm228 0v388c0 8.555-6.945 15.5-15.5 15.5H471c-8.555 0-15.5-6.945-15.5-15.5V16c0-8.555 6.945-15.5 15.5-15.5h138c8.555 0 15.5 6.945 15.5 15.5z"/><path d="M169.5 137.5H.5V25.6c0-4.489 0-7.825.216-10.468.216-2.637.643-4.54 1.473-6.169a15.5 15.5 0 0 1 6.774-6.774c1.629-.83 3.532-1.257 6.169-1.473C17.775.5 21.111.5 25.6.5h118.8c4.489 0 7.825 0 10.468.216 2.637.216 4.54.643 6.169 1.473a15.5 15.5 0 0 1 6.774 6.774c.83 1.629 1.257 3.532 1.473 6.169.216 2.643.216 5.979.216 10.468zm227 0h-169V25.6c0-4.489 0-7.825.216-10.468.216-2.637.643-4.54 1.473-6.169a15.5 15.5 0 0 1 6.774-6.774c1.629-.83 3.532-1.257 6.169-1.473C244.775.5 248.111.5 252.6.5h118.8c4.489 0 7.825 0 10.468.216 2.637.216 4.54.643 6.169 1.473a15.5 15.5 0 0 1 6.774 6.774c.83 1.629 1.257 3.532 1.473 6.169.216 2.643.216 5.979.216 10.468zm228 0h-169V25.6c0-4.489 0-7.825.216-10.468.216-2.637.643-4.54 1.473-6.169a15.5 15.5 0 0 1 6.774-6.774c1.629-.83 3.532-1.257 6.169-1.473C472.775.5 476.111.5 480.6.5h118.8c4.489 0 7.825 0 10.468.216 2.637.216 4.54.643 6.169 1.473a15.5 15.5 0 0 1 6.774 6.774c.83 1.629 1.257 3.532 1.473 6.169.216 2.643.216 5.979.216 10.468zm-485 36.5v42c0 3.036-2.464 5.5-5.5 5.5H36a5.5 5.5 0 0 1-5.5-5.5v-42c0-3.036 2.464-5.5 5.5-5.5h98c3.036 0 5.5 2.464 5.5 5.5zm0 168v42c0 3.036-2.464 5.5-5.5 5.5H36a5.5 5.5 0 0 1-5.5-5.5v-42c0-3.036 2.464-5.5 5.5-5.5h98c3.036 0 5.5 2.464 5.5 5.5zm227-168v42c0 3.036-2.464 5.5-5.5 5.5h-98a5.5 5.5 0 0 1-5.5-5.5v-42c0-3.036 2.464-5.5 5.5-5.5h98c3.036 0 5.5 2.464 5.5 5.5zm0 168v42c0 3.036-2.464 5.5-5.5 5.5h-98a5.5 5.5 0 0 1-5.5-5.5v-42c0-3.036 2.464-5.5 5.5-5.5h98c3.036 0 5.5 2.464 5.5 5.5zm228-168v42c0 3.036-2.464 5.5-5.5 5.5h-98a5.5 5.5 0 0 1-5.5-5.5v-42c0-3.036 2.464-5.5 5.5-5.5h98c3.036 0 5.5 2.464 5.5 5.5zm0 168v42c0 3.036-2.464 5.5-5.5 5.5h-98a5.5 5.5 0 0 1-5.5-5.5v-42c0-3.036 2.464-5.5 5.5-5.5h98c3.036 0 5.5 2.464 5.5 5.5z"/></g><g fill="none" stroke="#111827" stroke-linejoin="bevel"><path d="M312 222v114m-6-90 6 6 6-6m0 66-6-6-6 6m-166 51h35.566a16 16 0 0 0 15.835-13.712l8.173-56.576A16 16 0 0 1 215.41 279H257m-117-84h35.566a16 16 0 0 1 15.835 13.712l8.173 56.576A16 16 0 0 0 215.41 279H257"/><path d="M257 279H140" shape-rendering="crispEdges"/><path d="m251 285 6-6-6-6m234-78h-36.005a16 16 0 0 0-15.833 13.693l-8.248 56.614A16 16 0 0 1 409.081 279H367m118 84h-36.005a16 16 0 0 1-15.833-13.693l-8.248-56.614A16 16 0 0 0 409.081 279H367"/><path d="M367 279h118" shape-rendering="crispEdges"/><path d="m479 201 6-6-6-6m0 96 6-6-6-6m0 96 6-6-6-6"/></g><g fill="#eef7ff"><path d="M103 33v20c0 4.415-3.585 8-8 8H75c-4.415 0-8-3.585-8-8V33c0-4.415 3.585-8 8-8h20c4.415 0 8 3.585 8 8m227 0v20c0 4.415-3.585 8-8 8h-20c-4.415 0-8-3.585-8-8V33c0-4.415 3.585-8 8-8h20c4.415 0 8 3.585 8 8m228 0v20c0 4.415-3.585 8-8 8h-20c-4.415 0-8-3.585-8-8V33c0-4.415 3.585-8 8-8h20c4.415 0 8 3.585 8 8"/><path stroke="#3d58d3" d="M139.5 258v42c0 3.036-2.464 5.5-5.5 5.5H36a5.5 5.5 0 0 1-5.5-5.5v-42c0-3.036 2.464-5.5 5.5-5.5h98c3.036 0 5.5 2.464 5.5 5.5zm455 0v42c0 3.036-2.464 5.5-5.5 5.5h-98a5.5 5.5 0 0 1-5.5-5.5v-42c0-3.036 2.464-5.5 5.5-5.5h98c3.036 0 5.5 2.464 5.5 5.5z"/></g><path fill="#3d58d3" d="M88.177 34c-1.34 0-2.58.437-3.58 1.176a5.6 5.6 0 0 0-2.626-.651c-2.973 0-5.412 2.315-5.564 5.24a4.08 4.08 0 0 0-2.285 3.66c0 2.26 1.844 4.082 4.108 4.082h1.715c.063.639.276 1.197.626 1.682.412.571.983 1.001 1.615 1.353l.336-.604-.336.604 2.449 1.364a.75.75 0 0 0 .73 0l2.449-1.364-.365-.655.365.655c.632-.352 1.203-.782 1.615-1.353.35-.485.563-1.043.626-1.682h2.388c1.892 0 3.435-1.524 3.435-3.415a3.42 3.42 0 0 0-2.42-3.263.75.75 0 1 0-.44 1.434c.792.243 1.36.974 1.36 1.829a1.925 1.925 0 0 1-1.935 1.915h-2.369V41.94a.75.75 0 0 0-.65-.744c-2.21-.294-3.216-.897-3.744-1.691a.75.75 0 0 0-.624-.335h-.112a.75.75 0 0 0-.624.335c-.528.794-1.534 1.397-3.744 1.691a.75.75 0 0 0-.65.744v4.067H78.23c-1.446 0-2.608-1.162-2.608-2.582 0-1.132.737-2.1 1.771-2.447a.75.75 0 0 0 .511-.744 4 4 0 0 1-.004-.179c0-2.22 1.817-4.03 4.071-4.03.844 0 1.626.253 2.275.686a.75.75 0 0 0 .916-.064 4.5 4.5 0 0 1 3.015-1.147 4.51 4.51 0 0 1 3.786 2.043.75.75 0 0 0 1.256-.821A6.01 6.01 0 0 0 88.177 34m-6.751 8.583c1.59-.281 2.759-.772 3.574-1.563.815.791 1.984 1.282 3.574 1.563v4.518c0 .516-.135.896-.362 1.211-.237.328-.603.627-1.128.92L85 50.392l-2.084-1.16c-.525-.293-.891-.592-1.128-.92-.227-.315-.362-.695-.362-1.211zm5.408 3.209a.751.751 0 0 0-1.152-.962l-.922 1.105-.467-.505a.75.75 0 1 0-1.102 1.017l1.046 1.134a.753.753 0 0 0 1.127-.028zM305.5 37.547c0-1.131.916-2.047 2.047-2.047h6.712c1.13 0 2.047.916 2.047 2.047v.038a.749.749 0 1 0 1.5 0v-.038A3.547 3.547 0 0 0 314.259 34h-6.712A3.547 3.547 0 0 0 304 37.547v10.907a3.547 3.547 0 0 0 3.547 3.547h6.712a3.547 3.547 0 0 0 3.547-3.547v-.622q.271-.1.525-.233l2.328 2.994a.75.75 0 0 0 1.184-.921l-2.329-2.994a4.246 4.246 0 1 0-3.208 1.407v.369c0 1.13-.917 2.047-2.047 2.047h-6.712a2.047 2.047 0 0 1-2.047-2.047zm5.374 1.089a.749.749 0 1 0-1.061-1.06l-1.217 1.217-.519-.518a.75.75 0 1 0-1.061 1.061l1.049 1.048a.75.75 0 0 0 1.061 0zm0 3.135a.75.75 0 0 1 0 1.061l-1.748 1.747a.75.75 0 0 1-1.061 0l-1.049-1.048a.75.75 0 1 1 1.061-1.061l.519.518 1.217-1.217a.75.75 0 0 1 1.061 0m0 5.256a.75.75 0 1 0-1.061-1.061l-1.217 1.218-.519-.519a.75.75 0 1 0-1.061 1.061l1.049 1.049a.754.754 0 0 0 1.061 0zm5.482-5.934a2.747 2.747 0 1 0 .001 5.493 2.747 2.747 0 0 0-.001-5.493M540.35 35.53c.09 0 .27.09.27.27v3.6q0 .27-.27.27h-4.5q-.27 0-.27-.27v-3.6q0-.27.27-.27zm0-1.53h-4.5c-.99 0-1.8.81-1.8 1.8v3.6c0 .99.81 1.8 1.8 1.8h4.5c.99 0 1.8-.81 1.8-1.8v-3.6c0-.99-.81-1.8-1.8-1.8m4 12.33q.27 0 .27.27v3.6q0 .27-.27.27h-4.5q-.27 0-.27-.27v-3.6q0-.27.27-.27zm0-1.53h-4.5c-.99 0-1.8.81-1.8 1.8v3.6c0 .99.81 1.8 1.8 1.8h4.5c.99 0 1.8-.81 1.8-1.8v-3.6c0-.99-.81-1.8-1.8-1.8M367 258v42c0 3.311-2.689 6-6 6h-98c-3.311 0-6-2.689-6-6v-42c0-3.311 2.689-6 6-6h98c3.311 0 6 2.689 6 6"/><path fill="none" stroke="#3d58d3" stroke-linecap="round" stroke-linejoin="round" stroke-width="1.5" d="M548.55 37.6h-6.4M549 48.49h-3m-6.95 0h-7.15c-.54 0-.9-.36-.9-.9V38.5c0-.54.36-.9.9-.9h3.15M546 34.99l2.61 2.61-2.52 2.52"/><g font-weight="700"><g font-size="18"><text x="126.752" y="81.951" transform="translate(-83.84 12.049)">Snapshot</text><text x="126.851" y="101.951" transform="translate(-83.84 12.049)">Inventory</text><text x="144.95" y="81.951" transform="translate(143.11 12.049)">Audit</text><text x="131.873" y="101.951" transform="translate(143.11 12.049)">Security</text><text x="146.498" y="81.951" transform="translate(371.61 12.049)">Build</text><text x="121.046" y="101.951" transform="translate(371.61 12.049)">Workﬂows</text></g><g fill="#fff"><text x="59.013" y="183.484" transform="translate(234.62 91.831)">Asset</text><text x="46.806" y="199.484" transform="translate(234.62 91.831)">Inventory</text></g><g fill="#3d58d3"><text x="51.57" y="283.445">Resources</text><text x="502.372" y="283.445">Data Export</text></g></g><text x="55.419" y="199.843">Identities</text><text x="41.97" y="366.491">Conﬁguration</text><text x="46.806" y="183.484" transform="translate(227.08 7.861)">Compliance</text><text x="68.003" y="199.484" transform="translate(227.08 7.861)">Rules</text><text x="60.021" y="183.484" transform="translate(227.16 175.86)">Custom</text><text x="60.671" y="199.484" transform="translate(227.16 175.86)">Policies</text><text x="56.264" y="183.484" transform="translate(455.22 7.861)">Ticketing</text><text x="54.437" y="199.484" transform="translate(455.22 7.861)">&amp; Alerting</text><text x="68.536" y="183.484" transform="translate(455.42 175.86)">API &amp;</text><text x="51.044" y="199.484" transform="translate(455.42 175.86)">Webhooks</text></svg>