<svg xmlns="http://www.w3.org/2000/svg" fill-rule="evenodd" font-size="10" font-weight="500" viewBox="0 0 380 366">
  <g fill="#fff" stroke="#e5e7eb">
    <path
      d="M379.5 16v78c0 8.555-6.945 15.5-15.5 15.5H16C7.445 109.5.5 102.555.5 94V16C.5 7.445 7.445.5 16 .5h348c8.555 0 15.5 6.945 15.5 15.5zm0 128v78c0 8.555-6.945 15.5-15.5 15.5H16C7.445 237.5.5 230.555.5 222v-78c0-8.555 6.945-15.5 15.5-15.5h348c8.555 0 15.5 6.945 15.5 15.5zm0 128v78c0 8.555-6.945 15.5-15.5 15.5H16C7.445 365.5.5 358.555.5 350v-78c0-8.555 6.945-15.5 15.5-15.5h348c8.555 0 15.5 6.945 15.5 15.5z" />
    <path
      d="M177.5 23v64c0 4.139-3.361 7.5-7.5 7.5h-64a7.504 7.504 0 0 1-7.5-7.5V23c0-4.139 3.361-7.5 7.5-7.5h64c4.139 0 7.5 3.361 7.5 7.5zm187 0v64c0 4.139-3.361 7.5-7.5 7.5h-64a7.504 7.504 0 0 1-7.5-7.5V23c0-4.139 3.361-7.5 7.5-7.5h64c4.139 0 7.5 3.361 7.5 7.5zm-187 128v64c0 4.139-3.361 7.5-7.5 7.5h-64a7.504 7.504 0 0 1-7.5-7.5v-64c0-4.139 3.361-7.5 7.5-7.5h64c4.139 0 7.5 3.361 7.5 7.5zm187 0v64c0 4.139-3.361 7.5-7.5 7.5h-64a7.504 7.504 0 0 1-7.5-7.5v-64c0-4.139 3.361-7.5 7.5-7.5h64c4.139 0 7.5 3.361 7.5 7.5zm-187 128v64c0 4.139-3.361 7.5-7.5 7.5h-64a7.504 7.504 0 0 1-7.5-7.5v-64c0-4.139 3.361-7.5 7.5-7.5h64c4.139 0 7.5 3.361 7.5 7.5zm187 0v64c0 4.139-3.361 7.5-7.5 7.5h-64a7.504 7.504 0 0 1-7.5-7.5v-64c0-4.139 3.361-7.5 7.5-7.5h64c4.139 0 7.5 3.361 7.5 7.5z" />
  </g>
  <g fill="#f4f3ff">
    <path
      d="M62.883 26.5v20c0 4.415-3.585 8-8 8h-20c-4.415 0-8-3.585-8-8v-20c0-4.415 3.585-8 8-8h20c4.415 0 8 3.585 8 8m0 128v20c0 4.415-3.585 8-8 8h-20c-4.415 0-8-3.585-8-8v-20c0-4.415 3.585-8 8-8h20c4.415 0 8 3.585 8 8m0 128v20c0 4.415-3.585 8-8 8h-20c-4.415 0-8-3.585-8-8v-20c0-4.415 3.585-8 8-8h20c4.415 0 8 3.585 8 8" />
    <path stroke="#7640eb"
      d="M271.5 21v68c0 3.036-2.464 5.5-5.5 5.5h-68a5.5 5.5 0 0 1-5.5-5.5V21c0-3.036 2.464-5.5 5.5-5.5h68c3.036 0 5.5 2.464 5.5 5.5zm0 256v68c0 3.036-2.464 5.5-5.5 5.5h-68a5.5 5.5 0 0 1-5.5-5.5v-68c0-3.036 2.464-5.5 5.5-5.5h68c3.036 0 5.5 2.464 5.5 5.5z" />
  </g>
  <path fill="#7640eb"
    d="M48.056 27.5a6 6 0 0 0-3.581 1.176 5.6 5.6 0 0 0-2.625-.652c-2.974 0-5.412 2.316-5.564 5.241A4.08 4.08 0 0 0 34 36.925c0 2.26 1.845 4.082 4.108 4.082h1.716c.062.639.276 1.197.626 1.682.411.571.982 1.001 1.615 1.353l.336-.604-.336.604 2.449 1.364a.75.75 0 0 0 .729 0l2.45-1.364-.365-.655.365.655c.632-.352 1.203-.782 1.614-1.353a3.4 3.4 0 0 0 .626-1.682h2.388c1.892 0 3.436-1.524 3.436-3.415a3.42 3.42 0 0 0-2.42-3.263.75.75 0 1 0-.441 1.434 1.92 1.92 0 0 1 1.361 1.829 1.925 1.925 0 0 1-1.936 1.915h-2.368V35.44a.75.75 0 0 0-.651-.744c-2.21-.294-3.215-.897-3.743-1.691a.75.75 0 0 0-.625-.335h-.111a.75.75 0 0 0-.625.335c-.528.794-1.533 1.397-3.743 1.691a.75.75 0 0 0-.651.744v4.067h-1.696c-1.446 0-2.608-1.162-2.608-2.583 0-1.132.737-2.1 1.771-2.446a.75.75 0 0 0 .511-.744 4 4 0 0 1-.004-.179c0-2.22 1.817-4.031 4.072-4.031.844 0 1.625.254 2.274.687a.75.75 0 0 0 .917-.064A4.5 4.5 0 0 1 48.056 29c1.588 0 2.983.813 3.786 2.042a.75.75 0 1 0 1.255-.82 6.01 6.01 0 0 0-5.041-2.722m-6.752 8.583c1.59-.281 2.76-.772 3.575-1.563.815.791 1.984 1.282 3.574 1.563V40.6c0 .517-.136.897-.362 1.212-.237.328-.604.627-1.128.919l-2.084 1.161-2.085-1.161c-.524-.292-.891-.591-1.128-.919-.226-.315-.362-.695-.362-1.212zm5.408 3.208a.749.749 0 1 0-1.151-.961l-.922 1.105-.467-.505a.75.75 0 1 0-1.102 1.017l1.046 1.133a.75.75 0 0 0 1.127-.028zM38.495 159.05c0-1.131.916-2.047 2.047-2.047h6.712c1.13 0 2.047.916 2.047 2.047v.038a.75.75 0 1 0 1.5 0v-.038a3.547 3.547 0 0 0-3.547-3.547h-6.712a3.547 3.547 0 0 0-3.547 3.547v10.907a3.547 3.547 0 0 0 3.547 3.547h6.712a3.547 3.547 0 0 0 3.547-3.547v-.623q.272-.098.525-.232l2.328 2.993a.75.75 0 1 0 1.184-.92l-2.329-2.994a4.246 4.246 0 1 0-3.208 1.407v.369c0 1.13-.917 2.047-2.047 2.047h-6.712a2.047 2.047 0 0 1-2.047-2.047zm5.374 1.089a.749.749 0 1 0-1.061-1.06l-1.217 1.217-.519-.518a.75.75 0 1 0-1.061 1.061l1.049 1.048a.75.75 0 0 0 1.061 0zm0 3.135a.75.75 0 0 1 0 1.06l-1.748 1.748a.75.75 0 0 1-1.061 0l-1.049-1.048a.75.75 0 1 1 1.061-1.061l.519.518 1.217-1.217a.75.75 0 0 1 1.061 0m0 5.256a.75.75 0 1 0-1.061-1.061l-1.217 1.218-.519-.519a.75.75 0 1 0-1.061 1.061l1.049 1.049a.754.754 0 0 0 1.061 0zm5.482-5.934a2.747 2.747 0 1 0 .001 5.493 2.747 2.747 0 0 0-.001-5.493M45.228 285.03c.09 0 .27.09.27.27v3.6q0 .27-.27.27h-4.5q-.27 0-.27-.27v-3.6q0-.27.27-.27zm0-1.53h-4.5c-.99 0-1.8.81-1.8 1.8v3.6c0 .99.81 1.8 1.8 1.8h4.5c.99 0 1.8-.81 1.8-1.8v-3.6c0-.99-.81-1.8-1.8-1.8m4 12.33q.27 0 .27.27v3.6q0 .27-.27.27h-4.5q-.27 0-.27-.27v-3.6q0-.27.27-.27zm0-1.53h-4.5c-.99 0-1.8.81-1.8 1.8v3.6c0 .99.81 1.8 1.8 1.8h4.5c.99 0 1.8-.81 1.8-1.8v-3.6c0-.99-.81-1.8-1.8-1.8M272 149v68c0 3.311-2.689 6-6 6h-68c-3.311 0-6-2.689-6-6v-68c0-3.311 2.689-6 6-6h68c3.311 0 6 2.689 6 6" />
  <g fill="none" stroke="#7640eb" stroke-width="1.5">
    <path d="M53.428 287.1h-6.4m-3.1 10.89h-7.15c-.54 0-.9-.36-.9-.9V288c0-.54.36-.9.9-.9h3.15" />
    <path stroke-linecap="round" stroke-linejoin="round" d="M53.878 297.99h-3m0-13.5 2.61 2.61-2.52 2.52" />
  </g>
  <g fill="none" stroke="#111827" stroke-linejoin="bevel">
    <path d="M232 143V95m-5 43 5 5 5-5" />
    <path
      d="M138 95v8.894c0 6.381 4.993 11.646 11.365 11.983l71.27 3.774c6.372.338 11.365 5.603 11.365 11.984V143m93-48v8.9c0 6.378-4.99 11.642-11.359 11.983l-70.282 3.762c-6.369.341-11.359 5.605-11.359 11.983V143m30 62-5 5 5 5" />
    <path d="M257 210h63a6 6 0 0 0 6-6v-2m-119 8h-63a6 6 0 0 1-6-6v-2" />
    <path d="m202 215 5-5-5-5m30 66v-48m-5 43 5 5 5-5m-104 0 5 5 5-5m177 0 5 5 5-5" />
    <path
      d="M325 271v-8.9c0-6.378-4.99-11.642-11.359-11.983l-70.282-3.762C236.99 246.014 232 240.75 232 234.372V223m-94 48v-8.894c0-6.381 4.993-11.646 11.365-11.983l71.27-3.774c6.372-.338 11.365-5.603 11.365-11.984V223" />
  </g>
  <g font-size="11" font-weight="800"><text x="15.803" y="66.228"
      transform="translate(3.12 11.272)">Snapshot</text><text x="15.583" y="80.228"
      transform="translate(3.12 11.272)">Inventory</text><text x="26.82" y="66.228"
      transform="translate(3.23 139.28)">Audit</text><text x="18.779" y="80.228"
      transform="translate(3.23 139.28)">Security</text><text x="27.881" y="66.228"
      transform="translate(3.472 267.27)">Build</text><text x="12.036" y="80.228"
      transform="translate(3.472 267.27)">Workﬂows</text></g>
  <g font-weight="700">
    <g fill="#7640eb"><text x="206.29" y="58.979">Resources</text><text x="30.037" y="66.228"
        transform="translate(190.3 242.75)">Data</text><text x="25.137" y="78.228"
        transform="translate(190.3 242.75)">Export</text></g>
    <g fill="#fff"><text x="27.707" y="66.228" transform="translate(190.62 114.37)">Asset</text><text x="18.317"
        y="78.228" transform="translate(190.62 114.37)">Inventory</text></g>
  </g><text x="115.247" y="58.979">Identities</text><text x="291.9" y="59.099">Conﬁguration</text><text x="12.277"
    y="66.228" transform="translate(96.521 114.49)">Compliance</text><text x="28.582" y="78.228"
    transform="translate(96.521 114.49)">Rules</text><text x="22.442" y="66.228"
    transform="translate(283.46 114.49)">Custom</text><text x="22.942" y="78.228"
    transform="translate(283.46 114.49)">Policies</text><text x="19.552" y="66.228"
    transform="translate(96.515 242.45)">Ticketing</text><text x="18.147" y="78.228"
    transform="translate(96.515 242.45)">&amp; Alerting</text><text x="28.992" y="66.228"
    transform="translate(283.66 242.87)">API &amp;</text><text x="15.537" y="78.228"
    transform="translate(283.66 242.87)">Webhooks</text>
</svg>