<svg xmlns="http://www.w3.org/2000/svg" fill-rule="evenodd" font-size="14" viewBox="0 0 629 420"><path fill="#fff" stroke="#e5e7eb" d="M626.06 13.564v392c0 6.347-5.153 11.5-11.5 11.5h-146c-6.347 0-11.5-5.153-11.5-11.5v-392c0-6.347 5.153-11.5 11.5-11.5h146c6.347 0 11.5 5.153 11.5 11.5z"/><path fill="none" stroke="#bdbdbd" d="M596.06 340.56v42c0 3.035-2.465 5.5-5.5 5.5h-98c-3.017-.002-5.498-2.483-5.5-5.5v-42c0-3.036 2.464-5.5 5.5-5.5h98c3.035 0 5.5 2.464 5.5 5.5z"/><g fill="#1B2335"><text x="15.614" transform="translate(508.75 359.5)">API &amp;</text><text x=".123" y="14" transform="translate(508.75 359.5)">Webhooks</text></g><path fill="none" stroke="#bdbdbd" d="M596.06 172.56v42c0 3.035-2.465 5.5-5.5 5.5h-98c-3.017-.002-5.498-2.483-5.5-5.5v-42c0-3.036 2.464-5.5 5.5-5.5h98c3.035 0 5.5 2.464 5.5 5.5z"/><g fill="#1B2335"><text x="2.767" transform="translate(511.73 190.18)">Ticketing</text><text x="-1.02" y="14" transform="translate(511.73 190.18)">&amp; Alerting</text></g><path fill="#daecff" d="M596.56 256.56v42c0 3.311-2.689 6-6 6h-98c-3.312 0-6-2.689-6-6v-42c0-3.312 2.688-6 6-6h98c3.311 0 6 2.688 6 6"/><text x="504.607" y="281.235" fill="#1B2335">Data Export</text><path fill="none" stroke="#bdbdbd" d="M626.06 137.06h-169V20.76c0-3.369 0-5.865.16-7.841.16-1.97.48-3.379 1.09-4.58a11.58 11.58 0 0 1 5.03-5.026c1.2-.612 2.61-.93 4.58-1.091 1.98-.162 4.47-.162 7.84-.162h131.6c3.37 0 5.86 0 7.84.162 1.97.161 3.38.479 4.58 1.091a11.58 11.58 0 0 1 5.03 5.026c.61 1.201.93 2.61 1.09 4.58.16 1.976.16 4.472.16 7.841z"/><path fill="#fff" fill-rule="nonzero" stroke="#e5e7eb" stroke-linejoin="round" stroke-miterlimit="2" d="M626.06 137.06h-169V20.76c0-3.369 0-5.865.16-7.841.16-1.97.48-3.379 1.09-4.58a11.58 11.58 0 0 1 5.03-5.026c1.2-.612 2.61-.93 4.58-1.091 1.98-.162 4.47-.162 7.84-.162h131.6c3.37 0 5.86 0 7.84.162 1.97.161 3.38.479 4.58 1.091a11.58 11.58 0 0 1 5.03 5.026c.61 1.201.93 2.61 1.09 4.58.16 1.976.16 4.472.16 7.841z"/><g fill="#1B2335" class="font-display" font-size="24"><text x="30.756" transform="translate(483.8 93.424)">BUILD</text><text y="24" transform="translate(483.8 93.424)">WORKFLOWS</text></g><path fill="#daecff" d="M559.56 29.564v20c0 4.415-3.585 8-8 8h-20c-4.416 0-8-3.585-8-8v-20c0-4.416 3.584-8 8-8h20c4.415 0 8 3.584 8 8"/><path fill="#1c4396" fill-rule="nonzero" d="M541.91 32.094c.09 0 .27.09.27.27v3.6q0 .27-.27.27h-4.5q-.27 0-.27-.27v-3.6q0-.27.27-.27zm0-1.53h-4.5c-.99 0-1.8.81-1.8 1.8v3.6c0 .99.81 1.8 1.8 1.8h4.5c.99 0 1.8-.81 1.8-1.8v-3.6c0-.99-.81-1.8-1.8-1.8m4 12.33q.27 0 .27.27v3.6q0 .27-.27.27h-4.5q-.27 0-.27-.27v-3.6q0-.27.27-.27zm0-1.53h-4.5c-.99 0-1.8.81-1.8 1.8v3.6c0 .99.81 1.8 1.8 1.8h4.5c.99 0 1.8-.81 1.8-1.8v-3.6c0-.99-.81-1.8-1.8-1.8"/><path fill="none" stroke="#1c4396" stroke-miterlimit="10" stroke-width="1.5" d="M550.11 34.164h-6.4"/><path fill="none" stroke="#1c4396" stroke-linecap="round" stroke-linejoin="round" stroke-miterlimit="10" stroke-width="1.5" d="M550.56 45.054h-3"/><path fill="none" stroke="#1c4396" stroke-miterlimit="10" stroke-width="1.5" d="M540.61 45.054h-7.15c-.54 0-.9-.36-.9-.9v-9.09c0-.54.36-.9.9-.9h3.15"/><path fill="none" stroke="#1c4396" stroke-linecap="round" stroke-linejoin="round" stroke-miterlimit="10" stroke-width="1.5" d="m547.56 31.554 2.61 2.61-2.52 2.52"/><path fill="#fff" stroke="#e5e7eb" d="M398.06 13.564v392c0 6.347-5.153 11.5-11.5 11.5h-146c-6.347 0-11.5-5.153-11.5-11.5v-392c0-6.347 5.153-11.5 11.5-11.5h146c6.347 0 11.5 5.153 11.5 11.5z"/><path fill="none" stroke="#1b2335" d="M313.56 220.56v114"/><path fill="none" stroke="#bdbdbd" d="M368.06 340.56v42c0 3.035-2.465 5.5-5.5 5.5h-98c-3.017-.002-5.498-2.483-5.5-5.5v-42c0-3.036 2.464-5.5 5.5-5.5h98c3.035 0 5.5 2.464 5.5 5.5z"/><g fill="#1B2335"><text x=".58" transform="translate(289.56 359.5)">Custom</text><text x="1.119" y="14" transform="translate(289.56 359.5)">Policies</text></g><path fill="none" stroke="#bdbdbd" d="M368.06 172.56v42c0 3.035-2.465 5.5-5.5 5.5h-98c-3.017-.002-5.498-2.483-5.5-5.5v-42c0-3.036 2.464-5.5 5.5-5.5h98c3.035 0 5.5 2.464 5.5 5.5z"/><g fill="#1B2335"><text x="1.276" transform="translate(276.46 191.5)">Compliance</text><text x="19.693" y="14" transform="translate(276.46 191.5)">Rules</text></g><path fill="#3d58d3" d="M368.56 256.56v42c0 3.311-2.689 6-6 6h-98c-3.312 0-6-2.689-6-6v-42c0-3.312 2.688-6 6-6h98c3.311 0 6 2.688 6 6"/><g fill="#fff"><text x="11.258" transform="translate(284.24 274.24)">Asset</text><text x=".296" y="14" transform="translate(284.24 274.24)">Inventory</text></g><path fill="#fff" fill-rule="nonzero" d="M398.06 137.06h-169V20.76c0-3.369 0-5.865.162-7.841.161-1.97.479-3.379 1.091-4.58a11.5 11.5 0 0 1 5.026-5.026c1.201-.612 2.61-.93 4.58-1.091 1.976-.162 4.472-.162 7.841-.162h131.6c3.37 0 5.86 0 7.84.162 1.97.161 3.38.479 4.58 1.091a11.58 11.58 0 0 1 5.03 5.026c.61 1.201.93 2.61 1.09 4.58.16 1.976.16 4.473.16 7.841z"/><path fill="none" stroke="#e5e7eb" d="M398.06 137.06h-169V20.76c0-3.369 0-5.865.162-7.841.161-1.97.479-3.379 1.091-4.58a11.5 11.5 0 0 1 5.026-5.026c1.201-.612 2.61-.93 4.58-1.091 1.976-.162 4.472-.162 7.841-.162h131.6c3.37 0 5.86 0 7.84.162 1.97.161 3.38.479 4.58 1.091a11.58 11.58 0 0 1 5.03 5.026c.61 1.201.93 2.61 1.09 4.58.16 1.976.16 4.473.16 7.841z"/><g fill="#1B2335" class="font-display" font-size="24"><text x="16.548" transform="translate(270.05 93.424)">AUDIT</text><text y="24" transform="translate(270.05 93.424)">SECURITY</text></g><path fill="#daecff" d="M331.56 29.564v20c0 4.415-3.585 8-8 8h-20c-4.416 0-8-3.585-8-8v-20c0-4.416 3.584-8 8-8h20c4.415 0 8 3.584 8 8"/><path fill="#1c4396" d="M307.05 34.11a2.06 2.06 0 0 1 2.05-2.047h6.71c1.13 0 2.05.916 2.05 2.047v.038c0 .415.34.75.75.75s.75-.335.75-.75v-.038a3.57 3.57 0 0 0-3.55-3.547h-6.71a3.57 3.57 0 0 0-3.55 3.547v10.907a3.57 3.57 0 0 0 3.55 3.547h6.71c1.96 0 3.55-1.588 3.55-3.547v-.622c.18-.066.36-.144.53-.233l2.32 2.994a.764.764 0 0 0 1.06.131.764.764 0 0 0 .13-1.052l-2.33-2.994a4.24 4.24 0 0 0 1.09-2.84c0-2.329-1.916-4.245-4.245-4.245s-4.245 1.916-4.245 4.245v.001c-.002 2.309 1.881 4.217 4.19 4.246v.369a2.06 2.06 0 0 1-2.05 2.047h-6.71a2.06 2.06 0 0 1-2.05-2.047zm5.38 1.089a.749.749 0 1 0-1.06-1.06l-1.22 1.217-.52-.518a.752.752 0 0 0-1.28.53c0 .199.079.39.22.531l1.05 1.048a.744.744 0 0 0 1.06 0zm0 3.135c.29.293.29.768 0 1.061l-1.75 1.748a.753.753 0 0 1-1.06 0l-1.05-1.049a.75.75 0 0 1 1.06-1.061l.52.519 1.22-1.218a.753.753 0 0 1 1.06 0m0 5.256a.75.75 0 0 0-1.06-1.061l-1.22 1.218-.52-.519a.752.752 0 0 0-1.28.53c0 .199.079.39.22.531l1.05 1.049a.753.753 0 0 0 1.06 0zm5.48-5.933a2.753 2.753 0 0 0-2.74 2.74v.005c0 1.517 1.22 2.746 2.74 2.746s2.75-1.229 2.75-2.746a2.76 2.76 0 0 0-2.747-2.745z"/><path fill="#fff" stroke="#e5e7eb" d="M171.06 13.564v392c0 6.347-5.153 11.5-11.5 11.5h-146c-6.347 0-11.5-5.153-11.5-11.5v-392c0-6.347 5.153-11.5 11.5-11.5h146c6.347 0 11.5 5.153 11.5 11.5z"/><path fill="none" stroke="#bdbdbd" d="M141.06 340.56v42c0 3.035-2.465 5.5-5.5 5.5h-98c-3.017-.002-5.498-2.483-5.5-5.5v-42c0-3.036 2.464-5.5 5.5-5.5h98c3.035 0 5.5 2.464 5.5 5.5z"/><text x="46.009" y="365.235" fill="#1B2335">Configuration</text><path fill="none" stroke="#bdbdbd" d="M141.06 172.56v42c0 3.035-2.465 5.5-5.5 5.5h-98c-3.017-.002-5.498-2.483-5.5-5.5v-42c0-3.036 2.464-5.5 5.5-5.5h98c3.035 0 5.5 2.464 5.5 5.5z"/><text x="58.714" y="198.439" fill="#1B2335">Identities</text><path fill="#daecff" d="M141.56 256.56v42c0 3.311-2.689 6-6 6h-98c-3.312 0-6-2.689-6-6v-42c0-3.312 2.688-6 6-6h98c3.311 0 6 2.688 6 6"/><text x="54.864" y="282.439" fill="#1B2335">Resources</text><path fill="#fff" fill-rule="nonzero" d="M171.06 137.06h-169V20.76c0-3.369 0-5.865.162-7.841.161-1.97.479-3.379 1.091-4.58a11.5 11.5 0 0 1 5.026-5.026c1.201-.612 2.61-.93 4.58-1.091 1.976-.162 4.472-.162 7.841-.162h131.6c3.369 0 5.865 0 7.841.162 1.97.161 3.379.479 4.58 1.091a11.5 11.5 0 0 1 5.026 5.026c.612 1.201.93 2.61 1.091 4.58.162 1.976.162 4.473.162 7.841z"/><path fill="none" stroke="#e5e7eb" d="M171.06 137.06h-169V20.76c0-3.369 0-5.865.162-7.841.161-1.97.479-3.379 1.091-4.58a11.5 11.5 0 0 1 5.026-5.026c1.201-.612 2.61-.93 4.58-1.091 1.976-.162 4.472-.162 7.841-.162h131.6c3.369 0 5.865 0 7.841.162 1.97.161 3.379.479 4.58 1.091a11.5 11.5 0 0 1 5.026 5.026c.612 1.201.93 2.61 1.091 4.58.162 1.976.162 4.473.162 7.841z"/><g fill="#1B2335" class="font-display" font-size="24"><text x="2.364" transform="translate(36.1 93.604)">SNAPSHOT</text><text y="24" transform="translate(36.1 93.604)">INVENTORY</text></g><path fill="#daecff" d="M104.56 29.564v20c0 4.415-3.585 8-8 8h-20c-4.416 0-8-3.585-8-8v-20c0-4.416 3.584-8 8-8h20c4.415 0 8 3.584 8 8"/><path fill="#1c4396" d="M89.739 30.563a6 6 0 0 0-3.581 1.176 5.6 5.6 0 0 0-2.625-.652c-2.974 0-5.412 2.316-5.564 5.241a4.09 4.09 0 0 0-2.286 3.66c0 2.26 1.845 4.082 4.108 4.082h1.716c.062.639.276 1.197.625 1.682.412.571.983 1.001 1.615 1.353l.337-.604-.337.604 2.45 1.364a.75.75 0 0 0 .729 0l2.449-1.364-.364-.655.364.655c.633-.352 1.204-.782 1.615-1.353.35-.485.564-1.043.626-1.682h2.388c1.892 0 3.436-1.524 3.436-3.415a3.43 3.43 0 0 0-2.42-3.263.754.754 0 0 0-.971.717c0 .328.216.62.53.717a1.925 1.925 0 0 1 1.361 1.829 1.934 1.934 0 0 1-1.925 1.915h-2.379v-4.067a.75.75 0 0 0-.651-.743c-2.21-.295-3.215-.897-3.743-1.692a.75.75 0 0 0-.625-.335h-.111a.75.75 0 0 0-.625.335c-.528.795-1.534 1.397-3.743 1.692a.75.75 0 0 0-.651.743v4.067h-1.696c-1.446 0-2.608-1.162-2.608-2.582 0-1.132.737-2.1 1.771-2.447a.75.75 0 0 0 .511-.744 4 4 0 0 1-.004-.179c0-2.22 1.817-4.031 4.072-4.031.844 0 1.625.254 2.274.687a.75.75 0 0 0 .916-.064 4.5 4.5 0 0 1 3.016-1.147 4.51 4.51 0 0 1 3.786 2.043c.14.204.372.327.619.327a.754.754 0 0 0 .636-1.148 6.02 6.02 0 0 0-5.041-2.722m-6.752 8.583c1.59-.281 2.759-.772 3.574-1.563.815.791 1.985 1.282 3.575 1.563v4.518c0 .516-.136.896-.362 1.211-.237.328-.604.627-1.128.92l-2.085 1.16-2.084-1.16c-.524-.293-.891-.592-1.128-.92-.226-.315-.362-.695-.362-1.211zm5.408 3.209a.749.749 0 1 0-1.151-.962l-.923 1.105-.466-.505a.75.75 0 1 0-1.103 1.017l1.047 1.134a.75.75 0 0 0 1.127-.029z"/><path fill="none" stroke="#1b2335" d="M141.56 361.56h35.566c7.917 0 14.703-5.876 15.835-13.712l8.173-56.576c1.132-7.836 7.919-13.712 15.836-13.712h41.59m-117-84h35.566c7.917 0 14.703 5.876 15.835 13.712l8.173 56.576c1.132 7.836 7.919 13.712 15.836 13.712h41.59-117m345-84h-36.01c-7.94 0-14.68 5.831-15.83 13.693l-8.25 56.614c-1.14 7.862-7.88 13.693-15.83 13.693h-42.08m118 84h-36.01c-7.94 0-14.68-5.831-15.83-13.693l-8.25-56.614c-1.14-7.862-7.88-13.693-15.83-13.693h-42.08 118"/><path fill="none" stroke="#1b2335" stroke-linejoin="bevel" d="m252.56 283.56 6-6-6-6m228-72 6-6-6-6m0 96 6-6-6-6m0 96 6-6-6-6m-173-111 6 6 6-6m0 66-6-6-6 6"/></svg>