<svg xmlns="http://www.w3.org/2000/svg" viewBox="0 0 73 73"><linearGradient id="a" x1="36" x2="36" y1="0" y2="72" gradientUnits="userSpaceOnUse"><stop offset="0" stop-color="#D56EFC"/><stop offset="1" stop-color="#832BC1"/></linearGradient><path d="M72 22.523q.001-1.29-.005-2.58-.005-1.087-.032-2.173c-.043-1.577-.136-3.169-.416-4.728-.285-1.584-.749-3.058-1.482-4.497a15.12 15.12 0 0 0-6.61-6.61C62.017 1.203 60.543.738 58.96.454 57.4.173 55.808.081 54.23.038a98 98 0 0 0-2.173-.032q-1.29-.007-2.58-.006H22.523q-1.29-.001-2.58.005-1.087.005-2.173.032c-1.578.043-3.17.136-4.73.416-1.583.285-3.056.749-4.495 1.481a15.12 15.12 0 0 0-6.61 6.61C1.202 9.983.738 11.457.453 13.041c-.28 1.56-.373 3.151-.416 4.728q-.028 1.086-.032 2.173-.006 1.291-.005 2.581v26.955q-.001 1.29.005 2.58.005 1.086.032 2.173c.043 1.577.136 3.169.416 4.728.285 1.584.749 3.058 1.482 4.497a15.12 15.12 0 0 0 6.61 6.61c1.438.732 2.912 1.197 4.495 1.481 1.56.281 3.152.373 4.73.416q1.086.028 2.173.032 1.29.006 2.58.005h26.955q1.29.001 2.58-.005 1.087-.005 2.173-.032c1.578-.043 3.17-.136 4.73-.416 1.583-.285 3.056-.749 4.495-1.481a15.12 15.12 0 0 0 6.61-6.61c.733-1.439 1.197-2.913 1.482-4.497.28-1.56.373-3.151.416-4.728q.028-1.086.032-2.173.005-1.291.004-2.581z" style="fill:url(#a)"/><path fill="#fff" d="M35.977 26.184a5.387 5.387 0 1 1 0 10.772 5.387 5.387 0 1 1 0-10.772m15.509 7.274c0 5.315-2.69 10.014-6.78 12.808a.305.305 0 0 1-.475-.27 22 22 0 0 0 .026-2.643.96.96 0 0 1 .302-.753 12.5 12.5 0 0 0 3.965-9.141c0-7.08-5.899-12.809-13.042-12.533-6.572.255-11.873 5.623-12.046 12.196a12.5 12.5 0 0 0 3.961 9.479c.207.194.317.47.302.752-.048.861-.031 1.698.027 2.644a.305.305 0 0 1-.475.271c-4.143-2.829-6.849-7.612-6.78-13.011.105-8.208 6.688-14.972 14.894-15.29 8.828-.342 16.121 6.739 16.121 15.491M35.91 10.316c12.796-.036 23.217 10.359 23.217 23.143 0 10.078-6.477 18.67-15.488 21.838a.31.31 0 0 1-.41-.337c.119-.792.232-1.587.335-2.37a.8.8 0 0 1 .467-.627c7.135-3.115 12.134-10.236 12.134-18.504 0-11.183-9.146-20.271-20.354-20.181-10.963.088-19.915 9.023-20.021 19.982-.081 8.351 4.941 15.561 12.132 18.701.256.112.432.35.469.627.103.783.216 1.579.335 2.371a.31.31 0 0 1-.41.337c-9.098-3.199-15.613-11.927-15.487-22.13.156-12.595 10.481-22.814 23.081-22.85m.067 28.816c2.048 0 3.784.668 4.771 1.71.516.544.788 1.101.874 1.895.166 1.538.073 2.862-.107 4.978-.172 2.017-.497 4.707-.923 7.446-.303 1.95-.549 3.002-.773 3.755-.363 1.221-1.72 2.289-3.842 2.289s-3.479-1.068-3.842-2.289c-.224-.753-.47-1.806-.773-3.755-.425-2.739-.751-5.429-.923-7.446-.18-2.117-.274-3.441-.107-4.978.086-.794.358-1.351.874-1.895.988-1.042 2.723-1.71 4.771-1.71"/></svg>