<svg xmlns="http://www.w3.org/2000/svg" viewBox="0 0 463.5 464.9"><path fill="#f4842d" d="M357.8 460.7H104.3C48 460.7 2 414.7 2 358.4V106.3C2 50 48 4 104.3 4h253.5C414 4 460.1 50 460.1 106.3v252.1c0 56.3-46.1 102.3-102.3 102.3"/><path fill="#fff" d="M377.3 229.8c-1.8-79.8-67-144-147.3-144-81.4 0-147.3 66-147.3 147.3 0 56.3 31.6 105.3 78.1 130.1V232.4c0-34.1 24.5-62.5 56.8-68.7v24.5c-19.1 5.6-33 23.3-33 44.2v.6c.3 25.2 20.9 45.5 46.1 45.5 20.9 0 38.5-13.9 44.2-32.9h24.5c-6.2 32.3-34.6 56.7-68.7 56.7-17.7 0-33.8-6.6-46.1-17.4v88.4c14.3 4.6 29.6 7.2 45.5 7.2 30.6 0 59-9.3 82.6-25.3v25.3h64.7zm-146.7 29.5c-14.9 0-26.9-12-26.9-26.9s12-26.9 26.9-26.9 26.9 12 26.9 26.9-12 26.9-26.9 26.9m70-26.7h-23.8v-.2c0-25.5-20.6-46.1-46.1-46.1h-.1v-23.8h.1c38.6 0 69.9 31.3 69.9 69.9zm41 0H318v-.2c0-48.2-39.1-87.3-87.3-87.3h-.1v-23.6h.1c61.3 0 110.9 49.7 110.9 110.9z"/></svg>